<svg width="55" height="55" viewBox="0 0 55 55" fill="none" xmlns="http://www.w3.org/2000/svg">
<path d="M13 24.2281V40H23.726C23.726 37.9649 23.1963 37.7953 22.9315 37.9649H22.5675H18.7603H18.1644V37.2017V32.3258V30.3333C18.1644 23.414 14.7215 23.3801 13 24.2281Z" fill="#29ABD6"/>
<path d="M38.0274 34.4035H32.4658V40H38.0274V34.4035Z" fill="#29ABD6"/>
<path d="M34.0548 21.5H29.2877V23.2105H32.0685H39.6164H42V21.5H36.8356H34.0548Z" fill="#29ABD6"/>
<path d="M34.0548 16.4123C33.1014 18.4474 33.6575 20.652 34.0548 21.5H36.8356C37.789 19.4649 37.2329 17.2602 36.8356 16.4123H35.4452H34.0548Z" fill="#29ABD6"/>
<path d="M13 24.2281V11H26.1096V16.5965M13 24.2281V40H23.726M13 24.2281C14.7215 23.3801 18.1644 23.414 18.1644 30.3333M18.1644 30.3333C18.0119 29.5522 17.9823 28.3213 18.4699 27.4175M18.1644 30.3333C18.1644 31.0606 18.1644 31.723 18.1644 32.3258M18.1644 30.3333V32.3258M18.1644 37.9649V37.2017M18.1644 37.9649C18.1644 38.1155 18.1644 37.9919 18.1644 37.2017M18.1644 37.9649H18.7603M23.726 40H26.1096V37.2017M23.726 40C23.726 37.9649 23.1963 37.7953 22.9315 37.9649H22.5675M29.2877 21.5V11H42V21.5M29.2877 21.5H34.0548M29.2877 21.5V23.2105M42 21.5H36.8356M42 21.5V23.2105M34.0548 21.5C33.6575 20.652 33.1014 18.4474 34.0548 16.4123M34.0548 21.5H36.8356M34.0548 16.4123C34.0548 16.4123 34.9022 16.4123 35.4452 16.4123M34.0548 16.4123H35.4452M36.8356 16.4123C37.2329 17.2602 37.789 19.4649 36.8356 21.5M36.8356 16.4123C36.8356 16.4123 35.9882 16.4123 35.4452 16.4123M36.8356 16.4123H35.4452M35.4452 16.4123C35.2125 15.2202 34.8493 13.3596 34.8493 13.3596M35.4452 16.4123L36.8356 13.8684M29.2877 23.2105V27.7895H32.0685M29.2877 23.2105H32.0685M42 23.2105V27.7895H39.6164M42 23.2105H39.6164M32.0685 23.2105V27.7895M32.0685 23.2105H39.6164M32.0685 27.7895H39.6164M39.6164 23.2105V27.7895M38.0274 40H42V31.3509H29.2877V40H32.4658M38.0274 40V34.4035H32.4658V40M38.0274 40H32.4658M26.1096 16.5965C24.9795 16.5965 24.0647 17.0122 23.3288 17.6853M26.1096 16.5965V21.2467M23.3288 17.6853L26.1096 21.2467M23.3288 17.6853C22.3766 18.556 21.7238 19.8574 21.2912 21.2467M26.1096 21.2467V27.4175M21.2912 21.2467L26.1096 27.4175M21.2912 21.2467C20.8692 22.6023 20.657 24.0415 20.5812 25.2456M26.1096 27.4175V32.3258M18.4699 27.4175C18.8292 26.7515 19.4693 26.2632 20.5479 26.2632C20.5479 25.9512 20.5584 25.6091 20.5812 25.2456M18.4699 27.4175L26.1096 37.2017M26.1096 37.2017V32.3258M18.1644 37.2017L18.7603 37.9649M18.1644 37.2017C18.1644 36.3997 18.1644 34.9111 18.1644 32.3258M18.1644 37.2017V32.3258M18.7603 37.9649H22.5675M20.5812 25.2456L26.1096 32.3258M18.1644 32.3258L22.5675 37.9649" stroke="#29ABD6"/>
<rect x="13" y="42" width="29" height="2" fill="#29ABD6"/>
</svg>
