<svg width="55" height="55" viewBox="0 0 55 55" fill="none" xmlns="http://www.w3.org/2000/svg">
<path d="M13 22C13 19.2386 15.2386 17 18 17H37C39.7614 17 42 19.2386 42 22V27H13V22Z" fill="#29D6A2"/>
<path d="M27 37.2727C26.0473 37.2727 25.333 29 27 29C28.667 29 27.9527 37.2727 27 37.2727Z" fill="#29D6A2"/>
<path d="M27 39.2424C27.9524 39.2424 27.9524 42 27 42C26.0476 42 26.0476 39.2424 27 39.2424Z" fill="#29D6A2"/>
<path d="M27 37.2727C26.0473 37.2727 25.333 29 27 29C28.667 29 27.9527 37.2727 27 37.2727Z" stroke="#29D6A2"/>
<path d="M27 39.2424C27.9524 39.2424 27.9524 42 27 42C26.0476 42 26.0476 39.2424 27 39.2424Z" stroke="#29D6A2"/>
<path d="M13.5 22C13.5 19.5147 15.5147 17.5 18 17.5H37C39.4853 17.5 41.5 19.5147 41.5 22V41C41.5 43.4853 39.4853 45.5 37 45.5H18C15.5147 45.5 13.5 43.4853 13.5 41V22Z" stroke="#29D6A2"/>
<path d="M19 14C19 13.4477 19.4477 13 20 13H22C22.5523 13 23 13.4477 23 14V18C23 18.5523 22.5523 19 22 19H20C19.4477 19 19 18.5523 19 18V14Z" fill="#29D6A2"/>
<rect x="32" y="13" width="4" height="6" rx="1" fill="#29D6A2"/>
</svg>
