<svg width="55" height="55" viewBox="0 0 55 55" fill="none" xmlns="http://www.w3.org/2000/svg">
<rect x="10.5" y="20.5" width="34" height="21" rx="3.5" stroke="#39EDEA"/>
<path d="M14 39.5C13.1716 39.5 12.5 38.8284 12.5 38V24C12.5 23.1716 13.1716 22.5 14 22.5H16C16.8284 22.5 17.5 23.1716 17.5 24V38C17.5 38.8284 16.8284 39.5 16 39.5H14ZM20 24C20 23.1716 20.6716 22.5 21.5 22.5H33.5C34.3284 22.5 35 23.1716 35 24V38C35 38.8284 34.3284 39.5 33.5 39.5H21.5C20.6716 39.5 20 38.8284 20 38V24ZM41 22.5C41.8284 22.5 42.5 23.1716 42.5 24V38C42.5 38.8284 41.8284 39.5 41 39.5H39C38.1716 39.5 37.5 38.8284 37.5 38V24C37.5 23.1716 38.1716 22.5 39 22.5H41Z" fill="#39EDEA" stroke="#39EDEA"/>
<path d="M37 20.5V16C37 14.8954 36.1046 14 35 14H20C18.8954 14 18 14.8954 18 16V20.5" stroke="#39EDEA"/>
</svg>
