<svg width="55" height="55" viewBox="0 0 55 55" fill="none" xmlns="http://www.w3.org/2000/svg">
<g clip-path="url(#clip0_143_629)">
<path d="M27.5 49C39.3741 49 49 39.3741 49 27.5C49 15.6259 39.3741 6 27.5 6C15.6259 6 6 15.6259 6 27.5C6 39.3741 15.6259 49 27.5 49Z" stroke="#2F91F7" stroke-width="2"/>
<path d="M27.5 46.5C37.9934 46.5 46.5 37.9934 46.5 27.5C46.5 17.0066 37.9934 8.5 27.5 8.5C17.0066 8.5 8.5 17.0066 8.5 27.5C8.5 37.9934 17.0066 46.5 27.5 46.5Z" stroke="#2F91F7"/>
<path d="M27.2334 28.0575L27.3858 42L31.3207 32.1734L27.2334 28.0575Z" fill="#2F91F7"/>
<path d="M23.1467 32.1734L27.2333 28.0575L13 28.2153L23.1467 32.1734Z" fill="#2F91F7"/>
<path d="M27.2333 28.0575C27.2333 21.0019 27.0797 16.5432 27.0797 14L23.1467 23.9416L27.2333 28.0575Z" fill="#2F91F7"/>
<path d="M27.2334 28.0575L41.0001 27.905L31.3207 23.9416L27.2334 28.0575Z" fill="#2F91F7"/>
<path d="M27.3857 42L27.2333 28.0575M27.3857 42L31.3206 32.1734M27.3857 42L23.1467 32.1734M27.0797 14C27.0797 16.5432 27.2333 21.0019 27.2333 28.0575M27.0797 14L23.1467 23.9416M27.0797 14L31.3206 23.9416M27.2333 28.0575L41 27.905M27.2333 28.0575L31.3206 32.1734M27.2333 28.0575L23.1467 32.1734M27.2333 28.0575L13 28.2153M27.2333 28.0575L23.1467 23.9416M27.2333 28.0575L31.3206 23.9416M41 27.905L31.3206 32.1734M41 27.905L31.3206 23.9416M23.1467 32.1734L13 28.2153M13 28.2153L23.1467 23.9416" stroke="#2F91F7"/>
</g>
<defs>
<clipPath id="clip0_143_629">
<rect width="45" height="45" fill="white" transform="translate(5 5)"/>
</clipPath>
</defs>
</svg>
