<svg width="156" height="55" viewBox="0 0 156 55" fill="none" xmlns="http://www.w3.org/2000/svg">
<path d="M0 27.5C0 12.3122 12.3122 0 27.5 0H128.5C143.688 0 156 12.3122 156 27.5C156 42.6878 143.688 55 128.5 55H27.5C12.3122 55 0 42.6878 0 27.5Z" fill="#2FF782"/>
<path d="M26.5 34.5C26.5 36.1569 27.8431 37.5 29.5 37.5H47C48.6569 37.5 50 36.1569 50 34.5V29.5C50 27.8431 48.6569 26.5 47 26.5H29.5C27.8431 26.5 26.5 27.8431 26.5 29.5V34.5Z" fill="#15202A" stroke="#15202A"/>
<path d="M78.912 22.368C78.912 23.904 78.648 25.308 78.12 26.58C77.592 27.828 76.812 28.836 75.78 29.604C74.748 30.372 73.464 30.756 71.928 30.756H68.796C68.7 30.756 68.628 30.792 68.58 30.864C68.532 30.912 68.508 30.972 68.508 31.044V38.748C68.508 38.916 68.412 39 68.22 39H66.168C65.976 39 65.88 38.916 65.88 38.748V15.06C65.88 14.868 65.976 14.772 66.168 14.772H71.532C74.148 14.772 76.032 15.396 77.184 16.644C78.336 17.868 78.912 19.776 78.912 22.368ZM68.508 28.416C68.508 28.608 68.592 28.704 68.76 28.704H71.64C73.152 28.704 74.316 28.152 75.132 27.048C75.948 25.92 76.356 24.372 76.356 22.404C76.356 20.34 75.96 18.888 75.168 18.048C74.376 17.184 73.164 16.752 71.532 16.752H68.796C68.676 16.752 68.592 16.776 68.544 16.824C68.52 16.848 68.508 16.932 68.508 17.076V28.416ZM89.2935 39.216C87.3495 39.216 85.8375 38.844 84.7575 38.1C83.6775 37.356 82.9215 36.324 82.4895 35.004C82.0815 33.684 81.8775 32.172 81.8775 30.468C81.8775 28.788 82.1055 27.3 82.5615 26.004C83.0415 24.684 83.8215 23.652 84.9015 22.908C85.9815 22.164 87.4455 21.792 89.2935 21.792C91.1655 21.792 92.6415 22.164 93.7215 22.908C94.8015 23.652 95.5695 24.684 96.0255 26.004C96.5055 27.3 96.7455 28.788 96.7455 30.468C96.7455 32.148 96.5295 33.648 96.0975 34.968C95.6895 36.288 94.9455 37.332 93.8655 38.1C92.8095 38.844 91.2855 39.216 89.2935 39.216ZM89.2935 37.164C91.0935 37.164 92.3415 36.588 93.0375 35.436C93.7575 34.26 94.1175 32.616 94.1175 30.504C94.1175 28.392 93.7335 26.772 92.9655 25.644C92.1975 24.516 90.9735 23.952 89.2935 23.952C87.6375 23.952 86.4135 24.516 85.6215 25.644C84.8535 26.772 84.4695 28.392 84.4695 30.504C84.4695 32.64 84.8295 34.284 85.5495 35.436C86.2695 36.588 87.5175 37.164 89.2935 37.164ZM99.6674 36.012C99.6914 35.892 99.7394 35.844 99.8114 35.868C99.9074 35.868 100.003 35.904 100.099 35.976C100.483 36.216 100.963 36.42 101.539 36.588C102.115 36.756 102.703 36.888 103.303 36.984C103.903 37.08 104.419 37.128 104.851 37.128C105.523 37.128 106.159 37.02 106.759 36.804C107.359 36.588 107.839 36.252 108.199 35.796C108.583 35.316 108.775 34.704 108.775 33.96C108.775 33.072 108.439 32.448 107.767 32.088C107.119 31.704 106.063 31.416 104.599 31.224C103.687 31.104 102.835 30.9 102.043 30.612C101.275 30.3 100.651 29.844 100.171 29.244C99.7154 28.644 99.4874 27.84 99.4874 26.832C99.4874 25.728 99.7754 24.816 100.351 24.096C100.927 23.352 101.683 22.788 102.619 22.404C103.555 22.02 104.551 21.828 105.607 21.828C106.471 21.828 107.395 21.948 108.379 22.188C109.363 22.428 110.143 22.752 110.719 23.16C110.839 23.208 110.899 23.268 110.899 23.34C110.899 23.388 110.887 23.46 110.863 23.556L110.395 24.96C110.347 25.152 110.203 25.176 109.963 25.032C109.507 24.72 108.859 24.444 108.019 24.204C107.203 23.964 106.399 23.844 105.607 23.844C104.527 23.844 103.651 24.12 102.979 24.672C102.307 25.2 101.971 25.86 101.971 26.652C101.971 27.468 102.307 28.056 102.979 28.416C103.675 28.776 104.623 29.028 105.823 29.172C106.615 29.268 107.335 29.412 107.983 29.604C108.631 29.772 109.195 30.024 109.675 30.36C110.155 30.672 110.527 31.104 110.791 31.656C111.055 32.208 111.187 32.904 111.187 33.744C111.187 34.776 110.995 35.64 110.611 36.336C110.227 37.032 109.711 37.596 109.063 38.028C108.439 38.436 107.743 38.736 106.975 38.928C106.207 39.096 105.451 39.18 104.707 39.18C104.347 39.18 103.843 39.132 103.195 39.036C102.547 38.94 101.887 38.796 101.215 38.604C100.567 38.412 100.027 38.172 99.5954 37.884C99.4994 37.836 99.4274 37.788 99.3794 37.74C99.3554 37.692 99.3554 37.62 99.3794 37.524L99.6674 36.012ZM120.351 39C118.863 39 117.759 38.688 117.039 38.064C116.319 37.416 115.851 36.516 115.635 35.364C115.419 34.356 115.311 33.3 115.311 32.196C115.311 31.068 115.311 29.916 115.311 28.74C115.311 27.924 115.311 27.144 115.311 26.4C115.335 25.656 115.371 24.9 115.419 24.132C115.419 23.916 115.323 23.808 115.131 23.808H113.295C113.199 23.808 113.127 23.784 113.079 23.736C113.031 23.688 113.007 23.616 113.007 23.52V22.296C113.007 22.2 113.031 22.128 113.079 22.08C113.127 22.032 113.211 22.008 113.331 22.008H115.167C115.287 22.008 115.371 21.984 115.419 21.936C115.467 21.864 115.491 21.744 115.491 21.576L115.671 18.516C115.671 18.348 115.743 18.264 115.887 18.264H117.903C117.975 18.264 118.035 18.288 118.083 18.336C118.155 18.384 118.191 18.444 118.191 18.516L118.047 21.576C118.023 21.744 118.023 21.864 118.047 21.936C118.095 21.984 118.179 22.008 118.299 22.008H122.511C122.631 22.008 122.703 22.032 122.727 22.08C122.775 22.104 122.799 22.188 122.799 22.332V23.484C122.799 23.58 122.775 23.664 122.727 23.736C122.679 23.784 122.595 23.808 122.475 23.808H118.299C118.203 23.808 118.119 23.844 118.047 23.916C117.975 23.964 117.939 24.06 117.939 24.204C117.915 24.972 117.891 25.752 117.867 26.544C117.843 27.336 117.831 28.14 117.831 28.956C117.831 29.94 117.831 30.948 117.831 31.98C117.855 32.988 117.975 33.972 118.191 34.932C118.335 35.604 118.599 36.108 118.983 36.444C119.391 36.78 120.015 36.948 120.855 36.948C121.191 36.948 121.527 36.912 121.863 36.84C122.199 36.744 122.535 36.648 122.871 36.552C123.039 36.456 123.147 36.42 123.195 36.444C123.243 36.468 123.291 36.552 123.339 36.696L123.735 37.884C123.783 38.028 123.759 38.136 123.663 38.208C123.591 38.28 123.435 38.376 123.195 38.496C122.931 38.592 122.607 38.688 122.223 38.784C121.863 38.856 121.515 38.916 121.179 38.964C120.843 38.988 120.567 39 120.351 39Z" fill="#15202A"/>
</svg>
