<svg width="76" height="76" viewBox="0 0 76 76" fill="none" xmlns="http://www.w3.org/2000/svg">
<path d="M2 56V74H20L2 56Z" fill="white"/>
<path d="M56 2H38L47 11L65 29L69.5 33.5L74 38V20C74 11 65 2 56 2Z" fill="white"/>
<path d="M74 47L47 74H74V47Z" fill="white"/>
<path d="M2 29L29 2H2V29Z" fill="white"/>
<path d="M2 2V0.5C1.17157 0.5 0.5 1.17157 0.5 2L2 2ZM74 74V75.5C74.8284 75.5 75.5 74.8284 75.5 74H74ZM2 74H0.5V75.5H2V74ZM38 74V75.5C38.3978 75.5 38.7794 75.342 39.0607 75.0607L38 74ZM74 38L75.0607 39.0607C75.342 38.7794 75.5 38.3978 75.5 38H74ZM2 38L0.93934 36.9393C0.658035 37.2206 0.5 37.6022 0.5 38H2ZM38 2V0.5C37.6022 0.5 37.2206 0.658035 36.9393 0.93934L38 2ZM74 47H75.5C75.5 46.3933 75.1345 45.8463 74.574 45.6142C74.0135 45.382 73.3683 45.5103 72.9393 45.9393L74 47ZM47 74L45.9393 72.9393C45.5103 73.3683 45.382 74.0135 45.6142 74.574C45.8464 75.1345 46.3933 75.5 47 75.5V74ZM29 2L30.0607 3.06066C30.4897 2.63166 30.618 1.98649 30.3858 1.42597C30.1536 0.865463 29.6067 0.5 29 0.5V2ZM2 29H0.5C0.5 29.6067 0.865463 30.1536 1.42597 30.3858C1.98649 30.618 2.63166 30.4897 3.06066 30.0607L2 29ZM47 11L48.0607 9.93934L48.0607 9.93934L47 11ZM65 29L66.0607 27.9393L66.0607 27.9393L65 29ZM42.5 51.5L41.4393 50.4393L41.4393 50.4393L42.5 51.5ZM59.375 34.625L58.3143 33.5643L58.3143 33.5643L59.375 34.625ZM59.375 52.625L60.4357 53.6857L60.4357 53.6857L59.375 52.625ZM69.5 42.5L70.5607 43.5607L70.5607 43.5607L69.5 42.5ZM48.125 63.875L49.1857 64.9357L49.1857 64.9357L48.125 63.875ZM3.06066 39.0607L39.0607 3.06066L36.9393 0.93934L0.93934 36.9393L3.06066 39.0607ZM3.5 74V56H0.5V74H3.5ZM3.5 56V38H0.5V56H3.5ZM20 72.5H2V75.5H20V72.5ZM0.939339 57.0607L18.9393 75.0607L21.0607 72.9393L3.06066 54.9393L0.939339 57.0607ZM38 2C38 3.5 38 3.5 38.0001 3.5C38.0002 3.5 38.0003 3.5 38.0004 3.5C38.0694 3.5 37.9324 3.5 38.0016 3.5C38.0698 3.5 37.9353 3.5 38.0037 3.5C38.071 3.5 37.939 3.5 38.0066 3.5C38.0731 3.5 37.9434 3.5 38.0102 3.5C38.076 3.5 37.9487 3.5 38.0147 3.5C38.0155 3.5 38.0164 3.5 38.0173 3.5C38.0181 3.5 38.0191 3.5 38.02 3.5C38.0842 3.5 37.9617 3.5 38.0261 3.5C38.0895 3.5 37.9693 3.5 38.033 3.5C38.0956 3.5 37.9778 3.5 38.0407 3.5C38.1633 3.5 37.9347 3.5 38.0584 3.5C38.1781 3.5 37.9586 3.5 38.0793 3.5C38.196 3.5 37.9855 3.5 38.1033 3.5C38.217 3.5 38.0156 3.5 38.1304 3.5C38.2412 3.5 38.0486 3.5 38.1605 3.5C38.2686 3.5 38.0846 3.5 38.1937 3.5C38.299 3.5 38.1236 3.5 38.2299 3.5C38.3324 3.5 38.1656 3.5 38.2691 3.5C38.3194 3.5 38.2392 3.5 38.2898 3.5C38.3395 3.5 38.2613 3.5 38.3112 3.5C38.4084 3.5 38.2582 3.5 38.3563 3.5C38.4508 3.5 38.3088 3.5 38.4043 3.5C38.4507 3.5 38.3827 3.5 38.4294 3.5C38.4336 3.5 38.4379 3.5 38.4422 3.5C38.4465 3.5 38.4508 3.5 38.4552 3.5C38.5446 3.5 38.4185 3.5 38.5089 3.5C38.5958 3.5 38.4776 3.5 38.5655 3.5C38.65 3.5 38.5394 3.5 38.6248 3.5C38.7069 3.5 38.604 3.5 38.687 3.5C38.7667 3.5 38.6713 3.5 38.7519 3.5C38.9035 3.5 38.7347 3.5 38.8899 3.5C39.0325 3.5 38.8924 3.5 39.0386 3.5C39.1725 3.5 39.0604 3.5 39.1978 3.5C39.3234 3.5 39.2383 3.5 39.3673 3.5C39.4849 3.5 39.4259 3.5 39.5469 3.5C40.139 3.5 40.5367 3.5 41.3223 3.5C41.4311 3.5 41.7331 3.5 41.8526 3.5C41.9417 3.5 42.3151 3.5 42.4143 3.5C42.4533 3.5 42.6649 3.5 42.7064 3.5C42.7246 3.5 42.8363 3.5 42.8551 3.5C42.8723 3.5 42.9879 3.5 43.0056 3.5C43.0365 3.5 43.2788 3.5 43.3119 3.5C43.339 3.5 43.5957 3.5 43.625 3.5C43.6485 3.5 43.919 3.5 43.9447 3.5C43.9649 3.5 44.2484 3.5 44.2707 3.5C44.2878 3.5 44.5838 3.5 44.603 3.5C44.6172 3.5 44.925 3.5 44.9412 3.5C44.9527 3.5 45.2717 3.5 45.2851 3.5C45.2942 3.5 45.6238 3.5 45.6347 3.5C45.6386 3.5 45.8071 3.5 45.8115 3.5C45.8263 3.5 45.8411 3.5 45.8559 3.5C45.8707 3.5 45.8855 3.5 45.9004 3.5C45.902 3.5 45.9878 3.5 45.9896 3.5C45.9942 3.5 46.3432 3.5 46.3496 3.5C46.3514 3.5 46.5293 3.5 46.5315 3.5C46.5329 3.5 46.7128 3.5 46.7146 3.5C46.7155 3.5 46.8976 3.5 46.8989 3.5C46.8994 3.5 47.0834 3.5 47.0843 3.5C47.0844 3.5 47.2704 3.5 47.2709 3.5C47.2865 3.5 47.3021 3.5 47.3177 3.5C47.3333 3.5 47.349 3.5 47.3646 3.5C47.3802 3.5 47.3959 3.5 47.4116 3.5C47.4272 3.5 47.4429 3.5 47.4586 3.5C47.4743 3.5 47.49 3.5 47.5057 3.5C47.5214 3.5 47.5371 3.5 47.5528 3.5C47.5686 3.5 47.5843 3.5 47.6 3.5C47.6158 3.5 47.6316 3.5 47.6473 3.5C47.6631 3.5 47.6789 3.5 47.6947 3.5C47.7105 3.5 47.7263 3.5 47.7421 3.5C47.7579 3.5 47.7738 3.5 47.7896 3.5C47.8054 3.5 47.8213 3.5 47.8372 3.5C47.853 3.5 47.8689 3.5 47.8848 3.5C47.9007 3.5 47.9166 3.5 47.9325 3.5C47.9484 3.5 47.9643 3.5 47.9802 3.5C47.9961 3.5 48.0121 3.5 48.028 3.5C48.044 3.5 48.0599 3.5 48.0759 3.5C48.0918 3.5 48.1078 3.5 48.1238 3.5C48.1398 3.5 48.1558 3.5 48.1718 3.5C48.1878 3.5 48.2038 3.5 48.2199 3.5C48.2359 3.5 48.2519 3.5 48.268 3.5C48.284 3.5 48.3001 3.5 48.3162 3.5C48.3322 3.5 48.3483 3.5 48.3644 3.5C48.3805 3.5 48.3966 3.5 48.4127 3.5C48.4288 3.5 48.4449 3.5 48.461 3.5C48.4772 3.5 48.4933 3.5 48.5095 3.5C48.5256 3.5 48.5418 3.5 48.5579 3.5C48.5741 3.5 48.5903 3.5 48.6065 3.5C48.6227 3.5 48.6389 3.5 48.6551 3.5C48.6713 3.5 48.6875 3.5 48.7037 3.5C48.7199 3.5 48.7362 3.5 48.7524 3.5C48.7687 3.5 48.7849 3.5 48.8012 3.5C48.8175 3.5 48.8337 3.5 48.85 3.5C48.8663 3.5 48.8826 3.5 48.8989 3.5C48.9152 3.5 48.9315 3.5 48.9478 3.5C48.9641 3.5 48.9805 3.5 48.9968 3.5C49.0131 3.5 49.0295 3.5 49.0458 3.5C49.0622 3.5 49.0786 3.5 49.0949 3.5C49.1113 3.5 49.1277 3.5 49.1441 3.5C49.1605 3.5 49.1769 3.5 49.1933 3.5C49.2097 3.5 49.2261 3.5 49.2425 3.5C49.259 3.5 49.2754 3.5 49.2919 3.5C49.3083 3.5 49.3248 3.5 49.3412 3.5C49.3577 3.5 49.3741 3.5 49.3906 3.5C49.4071 3.5 49.4236 3.5 49.4401 3.5C49.4566 3.5 49.4731 3.5 49.4896 3.5C49.5061 3.5 49.5226 3.5 49.5392 3.5C49.5557 3.5 49.5722 3.5 49.5888 3.5C49.6053 3.5 49.6219 3.5 49.6385 3.5C49.655 3.5 49.6716 3.5 49.6882 3.5C49.7047 3.5 49.7213 3.5 49.7379 3.5C49.7545 3.5 49.7711 3.5 49.7877 3.5C49.8044 3.5 49.821 3.5 49.8376 3.5C49.8542 3.5 49.8709 3.5 49.8875 3.5C49.9042 3.5 49.9208 3.5 49.9375 3.5C49.9541 3.5 49.9708 3.5 49.9875 3.5C50.0042 3.5 50.0208 3.5 50.0375 3.5C50.0542 3.5 50.0709 3.5 50.0876 3.5C50.1043 3.5 50.121 3.5 50.1378 3.5C50.1545 3.5 50.1712 3.5 50.188 3.5C50.2047 3.5 50.2214 3.5 50.2382 3.5C50.2549 3.5 50.2717 3.5 50.2885 3.5C50.3052 3.5 50.322 3.5 50.3388 3.5C50.3556 3.5 50.3724 3.5 50.3892 3.5C50.406 3.5 50.4228 3.5 50.4396 3.5C50.4564 3.5 50.4732 3.5 50.49 3.5C50.5068 3.5 50.5237 3.5 50.5405 3.5C50.5574 3.5 50.5742 3.5 50.5911 3.5C50.6079 3.5 50.6248 3.5 50.6416 3.5C50.6585 3.5 50.6754 3.5 50.6923 3.5C50.7091 3.5 50.726 3.5 50.7429 3.5C50.7598 3.5 50.7767 3.5 50.7936 3.5C50.8105 3.5 50.8274 3.5 50.8444 3.5C50.8613 3.5 50.8782 3.5 50.8951 3.5C50.9121 3.5 50.929 3.5 50.946 3.5C50.9629 3.5 50.9799 3.5 50.9968 3.5C51.0138 3.5 51.0308 3.5 51.0477 3.5C51.0647 3.5 51.0817 3.5 51.0987 3.5C51.1156 3.5 51.1326 3.5 51.1496 3.5C51.1666 3.5 51.1836 3.5 51.2007 3.5C51.2177 3.5 51.2347 3.5 51.2517 3.5C51.2687 3.5 51.2858 3.5 51.3028 3.5C51.3198 3.5 51.3369 3.5 51.3539 3.5C51.371 3.5 51.388 3.5 51.4051 3.5C51.4221 3.5 51.4392 3.5 51.4563 3.5C51.4733 3.5 51.4904 3.5 51.5075 3.5C51.5246 3.5 51.5417 3.5 51.5588 3.5C51.5759 3.5 51.593 3.5 51.6101 3.5C51.6272 3.5 51.6443 3.5 51.6614 3.5C51.6785 3.5 51.6956 3.5 51.7128 3.5C51.7299 3.5 51.747 3.5 51.7642 3.5C51.7813 3.5 51.7984 3.5 51.8156 3.5C51.8327 3.5 51.8499 3.5 51.867 3.5C51.8842 3.5 51.9014 3.5 51.9185 3.5C51.9357 3.5 51.9529 3.5 51.9701 3.5C51.9872 3.5 52.0044 3.5 52.0216 3.5C52.0388 3.5 52.056 3.5 52.0732 3.5C52.0904 3.5 52.1076 3.5 52.1248 3.5C52.142 3.5 52.1593 3.5 52.1765 3.5C52.1937 3.5 52.2109 3.5 52.2282 3.5C52.2454 3.5 52.2626 3.5 52.2799 3.5C52.2971 3.5 52.3143 3.5 52.3316 3.5C52.3488 3.5 52.3661 3.5 52.3834 3.5C52.4006 3.5 52.4179 3.5 52.4351 3.5C52.4524 3.5 52.4697 3.5 52.487 3.5C52.5042 3.5 52.5215 3.5 52.5388 3.5C52.5561 3.5 52.5734 3.5 52.5907 3.5C52.608 3.5 52.6253 3.5 52.6426 3.5C52.6599 3.5 52.6772 3.5 52.6945 3.5C52.7118 3.5 52.7291 3.5 52.7464 3.5C52.7638 3.5 52.7811 3.5 52.7984 3.5C52.8158 3.5 52.8331 3.5 52.8504 3.5C52.8678 3.5 52.8851 3.5 52.9024 3.5C52.9198 3.5 52.9371 3.5 52.9545 3.5C52.9718 3.5 52.9892 3.5 53.0066 3.5C53.0239 3.5 53.0413 3.5 53.0587 3.5C53.076 3.5 53.0934 3.5 53.1108 3.5C53.1281 3.5 53.1455 3.5 53.1629 3.5C53.1803 3.5 53.1977 3.5 53.2151 3.5C53.2325 3.5 53.2498 3.5 53.2672 3.5C53.2846 3.5 53.302 3.5 53.3194 3.5C53.3368 3.5 53.3543 3.5 53.3717 3.5C53.3891 3.5 53.4065 3.5 53.4239 3.5C53.4413 3.5 53.4587 3.5 53.4762 3.5C53.4936 3.5 53.511 3.5 53.5284 3.5C53.5459 3.5 53.5633 3.5 53.5807 3.5C53.5982 3.5 53.6156 3.5 53.6331 3.5C53.6505 3.5 53.668 3.5 53.6854 3.5C53.7028 3.5 53.7203 3.5 53.7378 3.5C53.7552 3.5 53.7727 3.5 53.7901 3.5C53.8076 3.5 53.825 3.5 53.8425 3.5C53.86 3.5 53.8774 3.5 53.8949 3.5C53.9124 3.5 53.9299 3.5 53.9473 3.5C53.9648 3.5 53.9823 3.5 53.9998 3.5C54.0173 3.5 54.0347 3.5 54.0522 3.5C54.0697 3.5 54.0872 3.5 54.1047 3.5C54.1222 3.5 54.1397 3.5 54.1572 3.5C54.1747 3.5 54.1922 3.5 54.2097 3.5C54.2272 3.5 54.2447 3.5 54.2622 3.5C54.2797 3.5 54.2972 3.5 54.3147 3.5C54.3322 3.5 54.3497 3.5 54.3672 3.5C54.3847 3.5 54.4023 3.5 54.4198 3.5C54.4373 3.5 54.4548 3.5 54.4723 3.5C54.4899 3.5 54.5074 3.5 54.5249 3.5C54.5424 3.5 54.56 3.5 54.5775 3.5C54.595 3.5 54.6126 3.5 54.6301 3.5C54.6476 3.5 54.6652 3.5 54.6827 3.5C54.7002 3.5 54.7178 3.5 54.7353 3.5C54.7528 3.5 54.7704 3.5 54.7879 3.5C54.8055 3.5 54.823 3.5 54.8406 3.5C54.8581 3.5 54.8757 3.5 54.8932 3.5C54.9107 3.5 54.9283 3.5 54.9458 3.5C54.9634 3.5 54.981 3.5 54.9985 3.5C55.0161 3.5 55.0336 3.5 55.0512 3.5C55.0687 3.5 55.0863 3.5 55.1038 3.5C55.1214 3.5 55.139 3.5 55.1565 3.5C55.1741 3.5 55.1916 3.5 55.2092 3.5C55.2268 3.5 55.2443 3.5 55.2619 3.5C55.2795 3.5 55.297 3.5 55.3146 3.5C55.3322 3.5 55.3497 3.5 55.3673 3.5C55.3849 3.5 55.4024 3.5 55.42 3.5C55.4376 3.5 55.4552 3.5 55.4727 3.5C55.4903 3.5 55.5079 3.5 55.5254 3.5C55.543 3.5 55.5606 3.5 55.5782 3.5C55.5957 3.5 55.6133 3.5 55.6309 3.5C55.6485 3.5 55.666 3.5 55.6836 3.5C55.7012 3.5 55.7188 3.5 55.7363 3.5C55.7539 3.5 55.7715 3.5 55.7891 3.5C55.8066 3.5 55.8242 3.5 55.8418 3.5C55.8594 3.5 55.877 3.5 55.8945 3.5C55.9121 3.5 55.9297 3.5 55.9473 3.5C55.9648 3.5 55.9824 3.5 56 3.5V0.5C55.9824 0.5 55.9648 0.5 55.9473 0.5C55.9297 0.5 55.9121 0.5 55.8945 0.5C55.877 0.5 55.8594 0.5 55.8418 0.5C55.8242 0.5 55.8066 0.5 55.7891 0.5C55.7715 0.5 55.7539 0.5 55.7363 0.5C55.7188 0.5 55.7012 0.5 55.6836 0.5C55.666 0.5 55.6485 0.5 55.6309 0.5C55.6133 0.5 55.5957 0.5 55.5782 0.5C55.5606 0.5 55.543 0.5 55.5254 0.5C55.5079 0.5 55.4903 0.5 55.4727 0.5C55.4552 0.5 55.4376 0.5 55.42 0.5C55.4024 0.5 55.3849 0.5 55.3673 0.5C55.3497 0.5 55.3322 0.5 55.3146 0.5C55.297 0.5 55.2795 0.5 55.2619 0.5C55.2443 0.5 55.2268 0.5 55.2092 0.5C55.1916 0.5 55.1741 0.5 55.1565 0.5C55.139 0.5 55.1214 0.5 55.1038 0.5C55.0863 0.5 55.0687 0.5 55.0512 0.5C55.0336 0.5 55.0161 0.5 54.9985 0.5C54.981 0.5 54.9634 0.5 54.9458 0.5C54.9283 0.5 54.9107 0.5 54.8932 0.5C54.8757 0.5 54.8581 0.5 54.8406 0.5C54.823 0.5 54.8055 0.5 54.7879 0.5C54.7704 0.5 54.7528 0.5 54.7353 0.5C54.7178 0.5 54.7002 0.5 54.6827 0.5C54.6652 0.5 54.6476 0.5 54.6301 0.5C54.6126 0.5 54.595 0.5 54.5775 0.5C54.56 0.5 54.5424 0.5 54.5249 0.5C54.5074 0.5 54.4899 0.5 54.4723 0.5C54.4548 0.5 54.4373 0.5 54.4198 0.5C54.4023 0.5 54.3847 0.5 54.3672 0.5C54.3497 0.5 54.3322 0.5 54.3147 0.5C54.2972 0.5 54.2797 0.5 54.2622 0.5C54.2447 0.5 54.2272 0.5 54.2097 0.5C54.1922 0.5 54.1747 0.5 54.1572 0.5C54.1397 0.5 54.1222 0.5 54.1047 0.5C54.0872 0.5 54.0697 0.5 54.0522 0.5C54.0347 0.5 54.0173 0.5 53.9998 0.5C53.9823 0.5 53.9648 0.5 53.9473 0.5C53.9299 0.5 53.9124 0.5 53.8949 0.5C53.8774 0.5 53.86 0.5 53.8425 0.5C53.825 0.5 53.8076 0.5 53.7901 0.5C53.7727 0.5 53.7552 0.5 53.7378 0.5C53.7203 0.5 53.7028 0.5 53.6854 0.5C53.668 0.5 53.6505 0.5 53.6331 0.5C53.6156 0.5 53.5982 0.5 53.5807 0.5C53.5633 0.5 53.5459 0.5 53.5284 0.5C53.511 0.5 53.4936 0.5 53.4762 0.5C53.4587 0.5 53.4413 0.5 53.4239 0.5C53.4065 0.5 53.3891 0.5 53.3717 0.5C53.3543 0.5 53.3368 0.5 53.3194 0.5C53.302 0.5 53.2846 0.5 53.2672 0.5C53.2498 0.5 53.2325 0.5 53.2151 0.5C53.1977 0.5 53.1803 0.5 53.1629 0.5C53.1455 0.5 53.1281 0.5 53.1108 0.5C53.0934 0.5 53.076 0.5 53.0587 0.5C53.0413 0.5 53.0239 0.5 53.0066 0.5C52.9892 0.5 52.9718 0.5 52.9545 0.5C52.9371 0.5 52.9198 0.5 52.9024 0.5C52.8851 0.5 52.8678 0.5 52.8504 0.5C52.8331 0.5 52.8158 0.5 52.7984 0.5C52.7811 0.5 52.7638 0.5 52.7464 0.5C52.7291 0.5 52.7118 0.5 52.6945 0.5C52.6772 0.5 52.6599 0.5 52.6426 0.5C52.6253 0.5 52.608 0.5 52.5907 0.5C52.5734 0.5 52.5561 0.5 52.5388 0.5C52.5215 0.5 52.5042 0.5 52.487 0.5C52.4697 0.5 52.4524 0.5 52.4351 0.5C52.4179 0.5 52.4006 0.5 52.3834 0.5C52.3661 0.5 52.3488 0.5 52.3316 0.5C52.3143 0.5 52.2971 0.5 52.2799 0.5C52.2626 0.5 52.2454 0.5 52.2282 0.5C52.2109 0.5 52.1937 0.5 52.1765 0.5C52.1593 0.5 52.142 0.5 52.1248 0.5C52.1076 0.5 52.0904 0.5 52.0732 0.5C52.056 0.5 52.0388 0.5 52.0216 0.5C52.0044 0.5 51.9872 0.5 51.9701 0.5C51.9529 0.5 51.9357 0.5 51.9185 0.5C51.9014 0.5 51.8842 0.5 51.867 0.5C51.8499 0.5 51.8327 0.5 51.8156 0.5C51.7984 0.5 51.7813 0.5 51.7642 0.5C51.747 0.5 51.7299 0.5 51.7128 0.5C51.6956 0.5 51.6785 0.5 51.6614 0.5C51.6443 0.5 51.6272 0.5 51.6101 0.5C51.593 0.5 51.5759 0.5 51.5588 0.5C51.5417 0.5 51.5246 0.5 51.5075 0.5C51.4904 0.5 51.4733 0.5 51.4563 0.5C51.4392 0.5 51.4221 0.5 51.4051 0.5C51.388 0.5 51.371 0.5 51.3539 0.5C51.3369 0.5 51.3198 0.5 51.3028 0.5C51.2858 0.5 51.2687 0.5 51.2517 0.5C51.2347 0.5 51.2177 0.5 51.2007 0.5C51.1836 0.5 51.1666 0.5 51.1496 0.5C51.1326 0.5 51.1156 0.5 51.0987 0.5C51.0817 0.5 51.0647 0.5 51.0477 0.5C51.0308 0.5 51.0138 0.5 50.9968 0.5C50.9799 0.5 50.9629 0.5 50.946 0.5C50.929 0.5 50.9121 0.5 50.8951 0.5C50.8782 0.5 50.8613 0.5 50.8444 0.5C50.8274 0.5 50.8105 0.5 50.7936 0.5C50.7767 0.5 50.7598 0.5 50.7429 0.5C50.726 0.5 50.7091 0.5 50.6923 0.5C50.6754 0.5 50.6585 0.5 50.6416 0.5C50.6248 0.5 50.6079 0.5 50.5911 0.5C50.5742 0.5 50.5574 0.5 50.5405 0.5C50.5237 0.5 50.5068 0.5 50.49 0.5C50.4732 0.5 50.4564 0.5 50.4396 0.5C50.4228 0.5 50.406 0.5 50.3892 0.5C50.3724 0.5 50.3556 0.5 50.3388 0.5C50.322 0.5 50.3052 0.5 50.2885 0.5C50.2717 0.5 50.2549 0.5 50.2382 0.5C50.2214 0.5 50.2047 0.5 50.188 0.5C50.1712 0.5 50.1545 0.5 50.1378 0.5C50.121 0.5 50.1043 0.5 50.0876 0.5C50.0709 0.5 50.0542 0.5 50.0375 0.5C50.0208 0.5 50.0042 0.5 49.9875 0.5C49.9708 0.5 49.9541 0.5 49.9375 0.5C49.9208 0.5 49.9042 0.5 49.8875 0.5C49.8709 0.5 49.8542 0.5 49.8376 0.5C49.821 0.5 49.8044 0.5 49.7877 0.5C49.7711 0.5 49.7545 0.5 49.7379 0.5C49.7213 0.5 49.7047 0.5 49.6882 0.5C49.6716 0.5 49.655 0.5 49.6385 0.5C49.6219 0.5 49.6053 0.5 49.5888 0.5C49.5722 0.5 49.5557 0.5 49.5392 0.5C49.5226 0.5 49.5061 0.5 49.4896 0.5C49.4731 0.5 49.4566 0.5 49.4401 0.5C49.4236 0.5 49.4071 0.5 49.3906 0.5C49.3741 0.5 49.3577 0.5 49.3412 0.5C49.3248 0.5 49.3083 0.5 49.2919 0.5C49.2754 0.5 49.259 0.5 49.2425 0.5C49.2261 0.5 49.2097 0.5 49.1933 0.5C49.1769 0.5 49.1605 0.5 49.1441 0.5C49.1277 0.5 49.1113 0.5 49.0949 0.5C49.0786 0.5 49.0622 0.5 49.0458 0.5C49.0295 0.5 49.0131 0.5 48.9968 0.5C48.9805 0.5 48.9641 0.5 48.9478 0.5C48.9315 0.5 48.9152 0.5 48.8989 0.5C48.8826 0.5 48.8663 0.5 48.85 0.5C48.8337 0.5 48.8175 0.5 48.8012 0.5C48.7849 0.5 48.7687 0.5 48.7524 0.5C48.7362 0.5 48.7199 0.5 48.7037 0.5C48.6875 0.5 48.6713 0.5 48.6551 0.5C48.6389 0.5 48.6227 0.5 48.6065 0.5C48.5903 0.5 48.5741 0.5 48.5579 0.5C48.5418 0.5 48.5256 0.5 48.5095 0.5C48.4933 0.5 48.4772 0.5 48.461 0.5C48.4449 0.5 48.4288 0.5 48.4127 0.5C48.3966 0.5 48.3805 0.5 48.3644 0.5C48.3483 0.5 48.3322 0.5 48.3162 0.5C48.3001 0.5 48.284 0.5 48.268 0.5C48.2519 0.5 48.2359 0.5 48.2199 0.5C48.2038 0.5 48.1878 0.5 48.1718 0.5C48.1558 0.5 48.1398 0.5 48.1238 0.5C48.1078 0.5 48.0918 0.5 48.0759 0.5C48.0599 0.5 48.044 0.5 48.028 0.5C48.0121 0.5 47.9961 0.5 47.9802 0.5C47.9643 0.5 47.9484 0.5 47.9325 0.5C47.9166 0.5 47.9007 0.5 47.8848 0.5C47.8689 0.5 47.853 0.5 47.8372 0.5C47.8213 0.5 47.8054 0.5 47.7896 0.5C47.7738 0.5 47.7579 0.5 47.7421 0.5C47.7263 0.5 47.7105 0.5 47.6947 0.5C47.6789 0.5 47.6631 0.5 47.6473 0.5C47.6316 0.5 47.6158 0.5 47.6 0.5C47.5843 0.5 47.5686 0.5 47.5528 0.5C47.5371 0.5 47.5214 0.5 47.5057 0.5C47.49 0.5 47.4743 0.5 47.4586 0.5C47.4429 0.5 47.4272 0.5 47.4116 0.5C47.3959 0.5 47.3802 0.5 47.3646 0.5C47.349 0.5 47.3333 0.5 47.3177 0.5C47.3021 0.5 47.2865 0.5 47.2709 0.5C47.2704 0.5 47.0844 0.5 47.0843 0.5C47.0834 0.5 46.8994 0.5 46.8989 0.5C46.8976 0.5 46.7155 0.5 46.7146 0.5C46.7128 0.5 46.5329 0.5 46.5315 0.5C46.5293 0.5 46.3514 0.5 46.3496 0.5C46.3432 0.5 45.9942 0.5 45.9896 0.5C45.9878 0.5 45.902 0.5 45.9004 0.5C45.8855 0.5 45.8707 0.5 45.8559 0.5C45.8411 0.5 45.8263 0.5 45.8115 0.5C45.8071 0.5 45.6386 0.5 45.6347 0.5C45.6238 0.5 45.2942 0.5 45.2851 0.5C45.2717 0.5 44.9527 0.5 44.9412 0.5C44.925 0.5 44.6172 0.5 44.603 0.5C44.5838 0.5 44.2878 0.5 44.2707 0.5C44.2484 0.5 43.9649 0.5 43.9447 0.5C43.919 0.5 43.6485 0.5 43.625 0.5C43.5957 0.5 43.339 0.5 43.3119 0.5C43.2788 0.5 43.0365 0.5 43.0056 0.5C42.9879 0.5 42.8723 0.5 42.8551 0.5C42.8363 0.5 42.7246 0.5 42.7064 0.5C42.6649 0.5 42.4533 0.5 42.4143 0.5C42.3151 0.5 41.9417 0.5 41.8526 0.5C41.7331 0.5 41.4311 0.5 41.3223 0.5C40.5367 0.5 40.139 0.5 39.5469 0.5C39.4259 0.5 39.4849 0.5 39.3673 0.5C39.2383 0.5 39.3234 0.5 39.1978 0.5C39.0604 0.5 39.1725 0.5 39.0386 0.5C38.8924 0.5 39.0325 0.5 38.8899 0.5C38.7347 0.5 38.9035 0.5 38.7519 0.5C38.6713 0.5 38.7667 0.5 38.687 0.5C38.604 0.5 38.7069 0.5 38.6248 0.5C38.5394 0.5 38.65 0.5 38.5655 0.5C38.4776 0.5 38.5958 0.5 38.5089 0.5C38.4185 0.5 38.5446 0.5 38.4552 0.5C38.4508 0.5 38.4465 0.5 38.4422 0.5C38.4379 0.5 38.4336 0.5 38.4294 0.5C38.3827 0.5 38.4507 0.5 38.4043 0.5C38.3088 0.5 38.4508 0.5 38.3563 0.5C38.2582 0.5 38.4084 0.5 38.3112 0.5C38.2613 0.5 38.3395 0.5 38.2898 0.5C38.2392 0.5 38.3194 0.5 38.2691 0.5C38.1656 0.5 38.3324 0.5 38.2299 0.5C38.1236 0.5 38.299 0.5 38.1937 0.5C38.0846 0.5 38.2686 0.5 38.1605 0.5C38.0486 0.5 38.2412 0.5 38.1304 0.5C38.0156 0.5 38.217 0.5 38.1033 0.5C37.9855 0.5 38.196 0.5 38.0793 0.5C37.9586 0.5 38.1781 0.5 38.0584 0.5C37.9347 0.5 38.1633 0.5 38.0407 0.5C37.9778 0.5 38.0956 0.5 38.033 0.5C37.9693 0.5 38.0895 0.5 38.0261 0.5C37.9617 0.5 38.0842 0.5 38.02 0.5C38.0191 0.5 38.0181 0.5 38.0173 0.5C38.0164 0.5 38.0155 0.5 38.0147 0.5C37.9487 0.5 38.076 0.5 38.0102 0.5C37.9434 0.5 38.0731 0.5 38.0066 0.5C37.939 0.5 38.071 0.5 38.0037 0.5C37.9353 0.5 38.0698 0.5 38.0016 0.5C37.9324 0.5 38.0694 0.5 38.0004 0.5C38.0003 0.5 38.0002 0.5 38.0001 0.5C38 0.5 38 0.5 38 2ZM56 3.5C60.0122 3.5 64.1499 5.52118 67.3143 8.68566C70.4788 11.8501 72.5 15.9878 72.5 20L75.5 20C75.5 15.0122 73.0212 10.1499 69.4357 6.56434C65.8501 2.97882 60.9878 0.5 56 0.5V3.5ZM72.9393 45.9393L45.9393 72.9393L48.0607 75.0607L75.0607 48.0607L72.9393 45.9393ZM72.5 20C72.5 20.5625 72.5 21.125 72.5 21.6853C72.5 21.7028 72.5 21.7203 72.5 21.7378C72.5 21.7553 72.5 21.7728 72.5 21.7903C72.5 21.8078 72.5 21.8253 72.5 21.8428C72.5 21.8603 72.5 21.8778 72.5 21.8953C72.5 21.9128 72.5 21.9303 72.5 21.9478C72.5 21.9653 72.5 21.9827 72.5 22.0002C72.5 22.0177 72.5 22.0352 72.5 22.0527C72.5 22.0701 72.5 22.0876 72.5 22.1051C72.5 22.2913 72.5 22.1285 72.5 22.3146C72.5 22.332 72.5 22.3495 72.5 22.3669C72.5 22.3844 72.5 22.4018 72.5 22.4193C72.5 22.4367 72.5 22.4541 72.5 22.4716C72.5 22.489 72.5 22.5064 72.5 22.5238C72.5 22.5413 72.5 22.5587 72.5 22.5761C72.5 22.5935 72.5 22.6109 72.5 22.6283C72.5 22.6457 72.5 22.6632 72.5 22.6806C72.5 22.698 72.5 22.7154 72.5 22.7328C72.5 22.7502 72.5 22.7675 72.5 22.7849C72.5 22.8023 72.5 22.8197 72.5 22.8371C72.5 22.8545 72.5 22.8719 72.5 22.8892C72.5 22.9066 72.5 22.924 72.5 22.9413C72.5 22.9587 72.5 22.9761 72.5 22.9934C72.5 23.0108 72.5 23.0282 72.5 23.0455C72.5 23.0629 72.5 23.0802 72.5 23.0976C72.5 23.1149 72.5 23.1322 72.5 23.1496C72.5 23.1669 72.5 23.1842 72.5 23.2016C72.5 23.2189 72.5 23.2362 72.5 23.2535C72.5 23.2709 72.5 23.2882 72.5 23.3055C72.5 23.3228 72.5 23.3401 72.5 23.3574C72.5 23.3747 72.5 23.392 72.5 23.4093C72.5 23.4266 72.5 23.4439 72.5 23.4612C72.5 23.4785 72.5 23.4958 72.5 23.513C72.5 23.5303 72.5 23.5476 72.5 23.5649C72.5 23.5821 72.5 23.5994 72.5 23.6166C72.5 23.6339 72.5 23.6512 72.5 23.6684C72.5 23.6857 72.5 23.7029 72.5 23.7201C72.5 23.7374 72.5 23.7546 72.5 23.7718C72.5 23.9554 72.5 23.795 72.5 23.9784C72.5 23.9956 72.5 24.0128 72.5 24.0299C72.5 24.0471 72.5 24.0643 72.5 24.0815C72.5 24.0986 72.5 24.1158 72.5 24.133C72.5 24.1501 72.5 24.1673 72.5 24.1844C72.5 24.2016 72.5 24.2187 72.5 24.2358C72.5 24.253 72.5 24.2701 72.5 24.2872C72.5 24.3044 72.5 24.3215 72.5 24.3386C72.5 24.3557 72.5 24.3728 72.5 24.3899C72.5 24.407 72.5 24.4241 72.5 24.4412C72.5 24.4583 72.5 24.4754 72.5 24.4925C72.5 24.5096 72.5 24.5267 72.5 24.5437C72.5 24.5608 72.5 24.5779 72.5 24.5949C72.5 24.612 72.5 24.629 72.5 24.6461C72.5 24.6631 72.5 24.6802 72.5 24.6972C72.5 24.7142 72.5 24.7313 72.5 24.7483C72.5 24.7653 72.5 24.7823 72.5 24.7993C72.5 24.8164 72.5 24.8334 72.5 24.8504C72.5 24.8674 72.5 24.8843 72.5 24.9013C72.5 24.9183 72.5 24.9353 72.5 24.9523C72.5 24.9692 72.5 24.9862 72.5 25.0032C72.5 25.0201 72.5 25.0371 72.5 25.054C72.5 25.071 72.5 25.0879 72.5 25.1049C72.5 25.1218 72.5 25.1387 72.5 25.1556C72.5 25.1726 72.5 25.1895 72.5 25.2064C72.5 25.2233 72.5 25.2402 72.5 25.2571C72.5 25.274 72.5 25.2909 72.5 25.3077C72.5 25.3246 72.5 25.3415 72.5 25.3584C72.5 25.3752 72.5 25.3921 72.5 25.4089C72.5 25.4258 72.5 25.4426 72.5 25.4595C72.5 25.4763 72.5 25.4932 72.5 25.51C72.5 25.5997 72.5 25.5212 72.5 25.6108C72.5 25.6276 72.5 25.6444 72.5 25.6612C72.5 25.678 72.5 25.6948 72.5 25.7115C72.5 25.7283 72.5 25.7451 72.5 25.7618C72.5 25.7786 72.5 25.7953 72.5 25.812C72.5 25.8288 72.5 25.8455 72.5 25.8622C72.5 25.879 72.5 25.8957 72.5 25.9124C72.5 25.9291 72.5 25.9458 72.5 25.9625C72.5 25.9792 72.5 25.9958 72.5 26.0125C72.5 26.0292 72.5 26.0459 72.5 26.0625C72.5 26.0792 72.5 26.0958 72.5 26.1125C72.5 26.1291 72.5 26.1458 72.5 26.1624C72.5 26.179 72.5 26.1956 72.5 26.2123C72.5 26.2289 72.5 26.2455 72.5 26.2621C72.5 26.2787 72.5 26.2952 72.5 26.3118C72.5 26.3284 72.5 26.345 72.5 26.3615C72.5 26.3781 72.5 26.3947 72.5 26.4112C72.5 26.4278 72.5 26.4443 72.5 26.4608C72.5 26.4774 72.5 26.4939 72.5 26.5104C72.5 26.5269 72.5 26.5434 72.5 26.5599C72.5 26.5764 72.5 26.5929 72.5 26.6094C72.5 26.6259 72.5 26.6423 72.5 26.6588C72.5 26.6752 72.5 26.6917 72.5 26.7081C72.5 26.7246 72.5 26.741 72.5 26.7575C72.5 26.7739 72.5 26.7903 72.5 26.8067C72.5 26.8231 72.5 26.8395 72.5 26.8559C72.5 26.8723 72.5 26.8887 72.5 26.9051C72.5 26.9214 72.5 26.9378 72.5 26.9542C72.5 26.9705 72.5 26.9869 72.5 27.0032C72.5 27.0195 72.5 27.0359 72.5 27.0522C72.5 27.0685 72.5 27.0848 72.5 27.1011C72.5 27.1174 72.5 27.1337 72.5 27.15C72.5 27.1663 72.5 27.1825 72.5 27.1988C72.5 27.2151 72.5 27.2313 72.5 27.2476C72.5 27.2638 72.5 27.2801 72.5 27.2963C72.5 27.3125 72.5 27.3287 72.5 27.3449C72.5 27.3611 72.5 27.3773 72.5 27.3935C72.5 27.4097 72.5 27.4259 72.5 27.4421C72.5 27.4582 72.5 27.4744 72.5 27.4905C72.5 27.5067 72.5 27.5228 72.5 27.5389C72.5 27.5551 72.5 27.5712 72.5 27.5873C72.5 27.6034 72.5 27.6195 72.5 27.6356C72.5 27.6517 72.5 27.6678 72.5 27.6838C72.5 27.6999 72.5 27.716 72.5 27.732C72.5 27.7481 72.5 27.7641 72.5 27.7801C72.5 27.7962 72.5 27.8122 72.5 27.8282C72.5 27.8442 72.5 27.8602 72.5 27.8762C72.5 27.8922 72.5 27.9082 72.5 27.9241C72.5 27.9401 72.5 27.956 72.5 27.972C72.5 27.9879 72.5 28.0039 72.5 28.0198C72.5 28.0357 72.5 28.0516 72.5 28.0675C72.5 28.0834 72.5 28.0993 72.5 28.1152C72.5 28.1311 72.5 28.147 72.5 28.1628C72.5 28.1787 72.5 28.1946 72.5 28.2104C72.5 28.2262 72.5 28.2421 72.5 28.2579C72.5 28.2737 72.5 28.2895 72.5 28.3053C72.5 28.3211 72.5 28.3369 72.5 28.3527C72.5 28.3684 72.5 28.3842 72.5 28.3999C72.5 28.4157 72.5 28.4314 72.5 28.4472C72.5 28.4629 72.5 28.4786 72.5 28.4943C72.5 28.51 72.5 28.5257 72.5 28.5414C72.5 28.5571 72.5 28.5728 72.5 28.5884C72.5 28.6041 72.5 28.6198 72.5 28.6354C72.5 28.651 72.5 28.6667 72.5 28.6823C72.5 28.6979 72.5 28.7135 72.5 28.7291C72.5 28.7447 72.5 28.7603 72.5 28.7759C72.5 28.7914 72.5 28.807 72.5 28.8225C72.5 28.8381 72.5 28.8536 72.5 28.8691C72.5 28.8847 72.5 28.9002 72.5 28.9157C72.5 28.9312 72.5 28.9467 72.5 28.9621C72.5 28.9776 72.5 28.9931 72.5 29.0085C72.5 29.024 72.5 29.0394 72.5 29.0549C72.5 29.0703 72.5 29.0857 72.5 29.1011C72.5 29.1165 72.5 29.1319 72.5 29.1473C72.5 29.1627 72.5 29.178 72.5 29.1934C72.5 29.2088 72.5 29.2241 72.5 29.2394C72.5 29.2548 72.5 29.2701 72.5 29.2854C72.5 29.3007 72.5 29.316 72.5 29.3313C72.5 29.3466 72.5 29.3618 72.5 29.3771C72.5 29.3924 72.5 29.4076 72.5 29.4228C72.5 29.4381 72.5 29.4533 72.5 29.4685C72.5 29.4837 72.5 29.4989 72.5 29.5141C72.5 29.5293 72.5 29.5444 72.5 29.5596C72.5 29.5748 72.5 29.5899 72.5 29.605C72.5 29.6202 72.5 29.6353 72.5 29.6504C72.5 29.6655 72.5 29.6806 72.5 29.6957C72.5 29.7107 72.5 29.7258 72.5 29.7409C72.5 29.7559 72.5 29.771 72.5 29.786C72.5 29.801 72.5 29.816 72.5 29.831C72.5 29.846 72.5 29.861 72.5 29.876C72.5 29.891 72.5 29.9059 72.5 29.9209C72.5 29.9358 72.5 29.9508 72.5 29.9657C72.5 29.9806 72.5 29.9955 72.5 30.0104C72.5 30.0253 72.5 30.0402 72.5 30.0551C72.5 30.0699 72.5 30.0848 72.5 30.0996C72.5 30.1145 72.5 30.1293 72.5 30.1441C72.5 30.1589 72.5 30.1737 72.5 30.1885C72.5 30.2033 72.5 30.2181 72.5 30.2329C72.5 30.2476 72.5 30.2624 72.5 30.2771C72.5 30.2918 72.5 30.3065 72.5 30.3213C72.5 30.336 72.5 30.3506 72.5 30.3653C72.5 30.38 72.5 30.3947 72.5 30.4093C72.5 30.424 72.5 30.4386 72.5 30.4532C72.5 30.4678 72.5 30.4824 72.5 30.497C72.5 30.5116 72.5 30.5262 72.5 30.5408C72.5 30.5553 72.5 30.5699 72.5 30.5844C72.5 30.599 72.5 30.6135 72.5 30.628C72.5 30.6425 72.5 30.657 72.5 30.6715C72.5 30.6859 72.5 30.7004 72.5 30.7149C72.5 30.7293 72.5 30.7437 72.5 30.7582C72.5 30.7726 72.5 30.787 72.5 30.8014C72.5 30.8158 72.5 30.8302 72.5 30.8445C72.5 30.8589 72.5 30.8732 72.5 30.8876C72.5 30.9019 72.5 30.9162 72.5 30.9305C72.5 30.9448 72.5 30.9591 72.5 30.9734C72.5 30.9876 72.5 31.0019 72.5 31.0161C72.5 31.0304 72.5 31.0446 72.5 31.0588C72.5 31.073 72.5 31.0872 72.5 31.1014C72.5 31.1156 72.5 31.1298 72.5 31.1439C72.5 31.1581 72.5 31.1722 72.5 31.1863C72.5 31.2005 72.5 31.2146 72.5 31.2287C72.5 31.2428 72.5 31.2568 72.5 31.2709C72.5 31.285 72.5 31.299 72.5 31.313C72.5 31.3271 72.5 31.3411 72.5 31.3551C72.5 31.3691 72.5 31.3831 72.5 31.397C72.5 31.5452 72.5 31.4163 72.5 31.5639C72.5 31.5778 72.5 31.5916 72.5 31.6054C72.5 31.6192 72.5 31.633 72.5 31.6468C72.5 31.6606 72.5 31.6743 72.5 31.6881C72.5 31.7018 72.5 31.7156 72.5 31.7293C72.5 31.743 72.5 31.7567 72.5 31.7704C72.5 31.7841 72.5 31.7977 72.5 31.8114C72.5 31.825 72.5 31.8387 72.5 31.8523C72.5 31.8659 72.5 31.8795 72.5 31.8931C72.5 31.9067 72.5 31.9202 72.5 31.9338C72.5 31.9473 72.5 31.9609 72.5 31.9744C72.5 31.9879 72.5 32.0014 72.5 32.0149C72.5 32.0284 72.5 32.0419 72.5 32.0553C72.5 32.0688 72.5 32.0822 72.5 32.0956C72.5 32.1091 72.5 32.1225 72.5 32.1359C72.5 32.1492 72.5 32.1626 72.5 32.176C72.5 32.1893 72.5 32.2027 72.5 32.216C72.5 32.2293 72.5 32.2426 72.5 32.2559C72.5 32.2692 72.5 32.2824 72.5 32.2957C72.5 32.3089 72.5 32.3222 72.5 32.3354C72.5 32.3486 72.5 32.3618 72.5 32.375C72.5 32.3882 72.5 32.4013 72.5 32.4145C72.5 32.4276 72.5 32.4408 72.5 32.4539C72.5 32.467 72.5 32.4801 72.5 32.4932C72.5 32.5063 72.5 32.5193 72.5 32.5324C72.5 32.5454 72.5 32.5584 72.5 32.5715C72.5 32.5845 72.5 32.5975 72.5 32.6104C72.5 32.6234 72.5 32.6364 72.5 32.6493C72.5 32.6622 72.5 32.6752 72.5 32.6881C72.5 32.701 72.5 32.7139 72.5 32.7267C72.5 32.7396 72.5 32.7525 72.5 32.7653C72.5 32.7781 72.5 32.7909 72.5 32.8037C72.5 32.8165 72.5 32.8293 72.5 32.8421C72.5 32.8548 72.5 32.8676 72.5 32.8803C72.5 32.893 72.5 32.9057 72.5 32.9184C72.5 32.9311 72.5 32.9438 72.5 32.9564C72.5 32.9691 72.5 32.9817 72.5 32.9944C72.5 33.007 72.5 33.0196 72.5 33.0321C72.5 33.0447 72.5 33.0573 72.5 33.0698C72.5 33.0824 72.5 33.0949 72.5 33.1074C72.5 33.1199 72.5 33.1324 72.5 33.1449C72.5 33.2779 72.5 33.1612 72.5 33.2936C72.5 33.3059 72.5 33.3182 72.5 33.3305C72.5 33.3428 72.5 33.3551 72.5 33.3673C72.5 33.3796 72.5 33.3918 72.5 33.404C72.5 33.4162 72.5 33.4284 72.5 33.4406C72.5 33.4527 72.5 33.4649 72.5 33.477C72.5 33.4892 72.5 33.5013 72.5 33.5134C72.5 33.5255 72.5 33.5375 72.5 33.5496C72.5 33.5616 72.5 33.5737 72.5 33.5857C72.5 33.5977 72.5 33.6097 72.5 33.6217C72.5 33.6337 72.5 33.6456 72.5 33.6576C72.5 33.6695 72.5 33.6814 72.5 33.6933C72.5 33.7052 72.5 33.7171 72.5 33.729C72.5 33.7408 72.5 33.7527 72.5 33.7645C72.5 33.7763 72.5 33.7881 72.5 33.7999C72.5 33.8117 72.5 33.8234 72.5 33.8352C72.5 33.8469 72.5 33.8586 72.5 33.8703C72.5 33.882 72.5 33.8937 72.5 33.9054C72.5 33.9171 72.5 33.9287 72.5 33.9403C72.5 33.9519 72.5 33.9635 72.5 33.9751C72.5 33.9867 72.5 33.9983 72.5 34.0098C72.5 34.0214 72.5 34.0329 72.5 34.0444C72.5 34.0559 72.5 34.0674 72.5 34.0788C72.5 34.0903 72.5 34.1017 72.5 34.1132C72.5 34.1246 72.5 34.136 72.5 34.1474C72.5 34.1587 72.5 34.1701 72.5 34.1814C72.5 34.1928 72.5 34.2041 72.5 34.2154C72.5 34.2267 72.5 34.238 72.5 34.2492C72.5 34.2605 72.5 34.2717 72.5 34.283C72.5 34.3425 72.5 34.2906 72.5 34.35C72.5 34.3611 72.5 34.3723 72.5 34.3834C72.5 34.3944 72.5 34.4055 72.5 34.4166C72.5 34.4276 72.5 34.4386 72.5 34.4497C72.5 34.4607 72.5 34.4717 72.5 34.4826C72.5 34.4936 72.5 34.5045 72.5 34.5155C72.5 34.5264 72.5 34.5373 72.5 34.5482C72.5 34.559 72.5 34.5699 72.5 34.5807C72.5 34.5916 72.5 34.6024 72.5 34.6132C72.5 34.624 72.5 34.6348 72.5 34.6455C72.5 34.6563 72.5 34.667 72.5 34.6777C72.5 34.6884 72.5 34.6991 72.5 34.7098C72.5 34.7205 72.5 34.7311 72.5 34.7417C72.5 34.7524 72.5 34.763 72.5 34.7736C72.5 34.7841 72.5 34.7947 72.5 34.8052C72.5 34.8158 72.5 34.8263 72.5 34.8368C72.5 34.8473 72.5 34.8578 72.5 34.8682C72.5 34.8787 72.5 34.8891 72.5 34.8995C72.5 34.9099 72.5 34.9203 72.5 34.9307C72.5 34.941 72.5 34.9514 72.5 34.9617C72.5 34.972 72.5 34.9823 72.5 34.9926C72.5 35.0029 72.5 35.0131 72.5 35.0233C72.5 35.0336 72.5 35.0438 72.5 35.054C72.5 35.0642 72.5 35.0743 72.5 35.0845C72.5 35.0946 72.5 35.1047 72.5 35.1148C72.5 35.1249 72.5 35.135 72.5 35.145C72.5 35.1551 72.5 35.1651 72.5 35.1751C72.5 35.1851 72.5 35.1951 72.5 35.2051C72.5 35.2151 72.5 35.225 72.5 35.2349C72.5 35.2448 72.5 35.2547 72.5 35.2646C72.5 35.2745 72.5 35.2843 72.5 35.2941C72.5 35.304 72.5 35.3138 72.5 35.3236C72.5 35.3333 72.5 35.3431 72.5 35.3528C72.5 35.3626 72.5 35.3723 72.5 35.382C72.5 35.3917 72.5 35.4013 72.5 35.411C72.5 35.4206 72.5 35.4302 72.5 35.4398C72.5 35.4494 72.5 35.459 72.5 35.4685C72.5 35.4781 72.5 35.4876 72.5 35.4971C72.5 35.5066 72.5 35.5161 72.5 35.5256C72.5 35.535 72.5 35.5445 72.5 35.5539C72.5 35.5633 72.5 35.5727 72.5 35.582C72.5 35.5914 72.5 35.6007 72.5 35.6101C72.5 35.6194 72.5 35.6287 72.5 35.6379C72.5 35.6472 72.5 35.6565 72.5 35.6657C72.5 35.6749 72.5 35.6841 72.5 35.6933C72.5 35.7024 72.5 35.7116 72.5 35.7207C72.5 35.7299 72.5 35.739 72.5 35.748C72.5 35.7571 72.5 35.7662 72.5 35.7752C72.5 35.7842 72.5 35.7932 72.5 35.8022C72.5 35.8112 72.5 35.8202 72.5 35.8291C72.5 35.838 72.5 35.847 72.5 35.8558C72.5 35.8647 72.5 35.8736 72.5 35.8824C72.5 35.8913 72.5 35.9001 72.5 35.9089C72.5 35.9177 72.5 35.9264 72.5 35.9352C72.5 35.9439 72.5 35.9526 72.5 35.9613C72.5 35.97 72.5 35.9787 72.5 35.9873C72.5 35.996 72.5 36.0046 72.5 36.0132C72.5 36.0218 72.5 36.0304 72.5 36.0389C72.5 36.0475 72.5 36.056 72.5 36.0645C72.5 36.2404 72.5 36.0909 72.5 36.2636C72.5 36.2717 72.5 36.2798 72.5 36.2879C72.5 36.2959 72.5 36.3039 72.5 36.3119C72.5 36.3199 72.5 36.3279 72.5 36.3358C72.5 36.3438 72.5 36.3517 72.5 36.3596C72.5 36.3675 72.5 36.3754 72.5 36.3832C72.5 36.3911 72.5 36.3989 72.5 36.4067C72.5 36.4145 72.5 36.4222 72.5 36.43C72.5 36.4377 72.5 36.4454 72.5 36.4531C72.5 36.4608 72.5 36.4685 72.5 36.4761C72.5 36.4838 72.5 36.4914 72.5 36.499C72.5 36.5065 72.5 36.5141 72.5 36.5216C72.5 36.5292 72.5 36.5367 72.5 36.5442C72.5 36.5516 72.5 36.5591 72.5 36.5665C72.5 36.574 72.5 36.5814 72.5 36.5888C72.5 36.5961 72.5 36.6035 72.5 36.6108C72.5 36.6181 72.5 36.6254 72.5 36.6327C72.5 36.64 72.5 36.6472 72.5 36.6545C72.5 36.6617 72.5 36.6689 72.5 36.676C72.5 36.6832 72.5 36.6904 72.5 36.6975C72.5 36.7046 72.5 36.7117 72.5 36.7187C72.5 36.7258 72.5 36.7328 72.5 36.7398C72.5 36.7469 72.5 36.7538 72.5 36.7608C72.5 36.7678 72.5 36.7747 72.5 36.7816C72.5 36.7885 72.5 36.7954 72.5 36.8022C72.5 36.8091 72.5 36.8159 72.5 36.8227C72.5 36.8295 72.5 36.8362 72.5 36.843C72.5 36.8497 72.5 36.8564 72.5 36.8631C72.5 36.8698 72.5 36.8765 72.5 36.8831C72.5 36.9539 72.5 36.8915 72.5 36.9614C72.5 36.9678 72.5 36.9742 72.5 36.9806C72.5 36.9869 72.5 36.9933 72.5 36.9996C72.5 37.0059 72.5 37.0122 72.5 37.0184C72.5 37.0247 72.5 37.0309 72.5 37.0371C72.5 37.0433 72.5 37.0494 72.5 37.0556C72.5 37.0617 72.5 37.0678 72.5 37.0739C72.5 37.08 72.5 37.0861 72.5 37.0921C72.5 37.0981 72.5 37.1041 72.5 37.1101C72.5 37.3452 72.5 37.4199 72.5 37.5957C72.5 37.7715 72.5 37.7847 72.5 37.8967C72.5 37.8989 72.5 37.9009 72.5 37.903C72.5 37.9051 72.5 37.9071 72.5 37.9091C72.5 37.9111 72.5 37.9131 72.5 37.915C72.5 37.9169 72.5 37.9188 72.5 37.9207C72.5 37.9226 72.5 37.9244 72.5 37.9262C72.5 37.928 72.5 37.9298 72.5 37.9315C72.5 37.9333 72.5 37.935 72.5 37.9367C72.5 37.9383 72.5 37.94 72.5 37.9416C72.5 37.9432 72.5 37.9448 72.5 37.9463C72.5 37.9479 72.5 37.9494 72.5 37.9509C72.5 37.9523 72.5 37.9538 72.5 37.9552C72.5 37.9566 72.5 37.958 72.5 37.9593C72.5 37.9607 72.5 37.962 72.5 37.9633C72.5 37.9646 72.5 37.9658 72.5 37.967C72.5 37.9682 72.5 37.9694 72.5 37.9706C72.5 37.9717 72.5 37.9728 72.5 37.9739C72.5 37.975 72.5 37.976 72.5 37.977C72.5 37.9781 72.5 37.979 72.5 37.98C72.5 37.9809 72.5 37.9819 72.5 37.9827C72.5 37.9836 72.5 37.9845 72.5 37.9853C72.5 37.9861 72.5 37.9869 72.5 37.9876C72.5 37.9884 72.5 37.9891 72.5 37.9898C72.5 37.9904 72.5 37.9911 72.5 37.9917C72.5 37.9923 72.5 37.9929 72.5 37.9934C72.5 37.994 72.5 37.9945 72.5 37.995C72.5 37.9954 72.5 37.9959 72.5 37.9963C72.5 37.9967 72.5 37.9971 72.5 37.9974C72.5 37.9978 72.5 37.9981 72.5 37.9984C72.5 37.9986 72.5 37.9989 72.5 37.9991C72.5 37.9993 72.5 37.9994 72.5 37.9996C72.5 37.9997 72.5 37.9998 72.5 37.9999C72.5 38 72.5 38 74 38C75.5 38 75.5 38 75.5 37.9999C75.5 37.9998 75.5 37.9997 75.5 37.9996C75.5 37.9994 75.5 37.9993 75.5 37.9991C75.5 37.9989 75.5 37.9986 75.5 37.9984C75.5 37.9981 75.5 37.9978 75.5 37.9974C75.5 37.9971 75.5 37.9967 75.5 37.9963C75.5 37.9959 75.5 37.9954 75.5 37.995C75.5 37.9945 75.5 37.994 75.5 37.9934C75.5 37.9929 75.5 37.9923 75.5 37.9917C75.5 37.9911 75.5 37.9904 75.5 37.9898C75.5 37.9891 75.5 37.9884 75.5 37.9876C75.5 37.9869 75.5 37.9861 75.5 37.9853C75.5 37.9845 75.5 37.9836 75.5 37.9827C75.5 37.9819 75.5 37.9809 75.5 37.98C75.5 37.979 75.5 37.9781 75.5 37.977C75.5 37.976 75.5 37.975 75.5 37.9739C75.5 37.9728 75.5 37.9717 75.5 37.9706C75.5 37.9694 75.5 37.9682 75.5 37.967C75.5 37.9658 75.5 37.9646 75.5 37.9633C75.5 37.962 75.5 37.9607 75.5 37.9593C75.5 37.958 75.5 37.9566 75.5 37.9552C75.5 37.9538 75.5 37.9523 75.5 37.9509C75.5 37.9494 75.5 37.9479 75.5 37.9463C75.5 37.9448 75.5 37.9432 75.5 37.9416C75.5 37.94 75.5 37.9383 75.5 37.9367C75.5 37.935 75.5 37.9333 75.5 37.9315C75.5 37.9298 75.5 37.928 75.5 37.9262C75.5 37.9244 75.5 37.9226 75.5 37.9207C75.5 37.9188 75.5 37.9169 75.5 37.915C75.5 37.9131 75.5 37.9111 75.5 37.9091C75.5 37.9071 75.5 37.9051 75.5 37.903C75.5 37.9009 75.5 37.8989 75.5 37.8967C75.5 37.7847 75.5 37.7715 75.5 37.5957C75.5 37.4199 75.5 37.3452 75.5 37.1101C75.5 37.1041 75.5 37.0981 75.5 37.0921C75.5 37.0861 75.5 37.08 75.5 37.0739C75.5 37.0678 75.5 37.0617 75.5 37.0556C75.5 37.0494 75.5 37.0433 75.5 37.0371C75.5 37.0309 75.5 37.0247 75.5 37.0184C75.5 37.0122 75.5 37.0059 75.5 36.9996C75.5 36.9933 75.5 36.9869 75.5 36.9806C75.5 36.9742 75.5 36.9678 75.5 36.9614C75.5 36.8915 75.5 36.9539 75.5 36.8831C75.5 36.8765 75.5 36.8698 75.5 36.8631C75.5 36.8564 75.5 36.8497 75.5 36.843C75.5 36.8362 75.5 36.8295 75.5 36.8227C75.5 36.8159 75.5 36.8091 75.5 36.8022C75.5 36.7954 75.5 36.7885 75.5 36.7816C75.5 36.7747 75.5 36.7678 75.5 36.7608C75.5 36.7538 75.5 36.7469 75.5 36.7398C75.5 36.7328 75.5 36.7258 75.5 36.7187C75.5 36.7117 75.5 36.7046 75.5 36.6975C75.5 36.6904 75.5 36.6832 75.5 36.676C75.5 36.6689 75.5 36.6617 75.5 36.6545C75.5 36.6472 75.5 36.64 75.5 36.6327C75.5 36.6254 75.5 36.6181 75.5 36.6108C75.5 36.6035 75.5 36.5961 75.5 36.5888C75.5 36.5814 75.5 36.574 75.5 36.5665C75.5 36.5591 75.5 36.5516 75.5 36.5442C75.5 36.5367 75.5 36.5292 75.5 36.5216C75.5 36.5141 75.5 36.5065 75.5 36.499C75.5 36.4914 75.5 36.4838 75.5 36.4761C75.5 36.4685 75.5 36.4608 75.5 36.4531C75.5 36.4454 75.5 36.4377 75.5 36.43C75.5 36.4222 75.5 36.4145 75.5 36.4067C75.5 36.3989 75.5 36.3911 75.5 36.3832C75.5 36.3754 75.5 36.3675 75.5 36.3596C75.5 36.3517 75.5 36.3438 75.5 36.3358C75.5 36.3279 75.5 36.3199 75.5 36.3119C75.5 36.3039 75.5 36.2959 75.5 36.2879C75.5 36.2798 75.5 36.2717 75.5 36.2636C75.5 36.0909 75.5 36.2404 75.5 36.0645C75.5 36.056 75.5 36.0475 75.5 36.0389C75.5 36.0304 75.5 36.0218 75.5 36.0132C75.5 36.0046 75.5 35.996 75.5 35.9873C75.5 35.9787 75.5 35.97 75.5 35.9613C75.5 35.9526 75.5 35.9439 75.5 35.9352C75.5 35.9264 75.5 35.9177 75.5 35.9089C75.5 35.9001 75.5 35.8913 75.5 35.8824C75.5 35.8736 75.5 35.8647 75.5 35.8558C75.5 35.847 75.5 35.838 75.5 35.8291C75.5 35.8202 75.5 35.8112 75.5 35.8022C75.5 35.7932 75.5 35.7842 75.5 35.7752C75.5 35.7662 75.5 35.7571 75.5 35.748C75.5 35.739 75.5 35.7299 75.5 35.7207C75.5 35.7116 75.5 35.7024 75.5 35.6933C75.5 35.6841 75.5 35.6749 75.5 35.6657C75.5 35.6565 75.5 35.6472 75.5 35.6379C75.5 35.6287 75.5 35.6194 75.5 35.6101C75.5 35.6007 75.5 35.5914 75.5 35.582C75.5 35.5727 75.5 35.5633 75.5 35.5539C75.5 35.5445 75.5 35.535 75.5 35.5256C75.5 35.5161 75.5 35.5066 75.5 35.4971C75.5 35.4876 75.5 35.4781 75.5 35.4685C75.5 35.459 75.5 35.4494 75.5 35.4398C75.5 35.4302 75.5 35.4206 75.5 35.411C75.5 35.3069 75.5 35.399 75.5 35.2941C75.5 35.2843 75.5 35.2745 75.5 35.2646C75.5 35.2547 75.5 35.2448 75.5 35.2349C75.5 35.225 75.5 35.2151 75.5 35.2051C75.5 35.1951 75.5 35.1851 75.5 35.1751C75.5 35.1651 75.5 35.1551 75.5 35.145C75.5 35.135 75.5 35.1249 75.5 35.1148C75.5 35.1047 75.5 35.0946 75.5 35.0845C75.5 35.0743 75.5 35.0642 75.5 35.054C75.5 35.0438 75.5 35.0336 75.5 35.0233C75.5 35.0131 75.5 35.0029 75.5 34.9926C75.5 34.9823 75.5 34.972 75.5 34.9617C75.5 34.9514 75.5 34.941 75.5 34.9307C75.5 34.9203 75.5 34.9099 75.5 34.8995C75.5 34.8891 75.5 34.8787 75.5 34.8682C75.5 34.8578 75.5 34.8473 75.5 34.8368C75.5 34.8263 75.5 34.8158 75.5 34.8052C75.5 34.7947 75.5 34.7841 75.5 34.7736C75.5 34.763 75.5 34.7524 75.5 34.7417C75.5 34.7311 75.5 34.7205 75.5 34.7098C75.5 34.6991 75.5 34.6884 75.5 34.6777C75.5 34.667 75.5 34.6563 75.5 34.6455C75.5 34.6348 75.5 34.624 75.5 34.6132C75.5 34.6024 75.5 34.5916 75.5 34.5807C75.5 34.5699 75.5 34.559 75.5 34.5482C75.5 34.5373 75.5 34.5264 75.5 34.5155C75.5 34.5045 75.5 34.4936 75.5 34.4826C75.5 34.4717 75.5 34.4607 75.5 34.4497C75.5 34.4386 75.5 34.4276 75.5 34.4166C75.5 34.4055 75.5 34.3944 75.5 34.3834C75.5 34.3723 75.5 34.3611 75.5 34.35C75.5 34.3389 75.5 34.3277 75.5 34.3165C75.5 34.3054 75.5 34.2942 75.5 34.283C75.5 34.2717 75.5 34.2605 75.5 34.2492C75.5 34.238 75.5 34.2267 75.5 34.2154C75.5 34.2041 75.5 34.1928 75.5 34.1814C75.5 34.1701 75.5 34.1587 75.5 34.1474C75.5 34.136 75.5 34.1246 75.5 34.1132C75.5 34.1017 75.5 34.0903 75.5 34.0788C75.5 34.0674 75.5 34.0559 75.5 34.0444C75.5 34.0329 75.5 34.0214 75.5 34.0098C75.5 33.9983 75.5 33.9867 75.5 33.9751C75.5 33.9635 75.5 33.9519 75.5 33.9403C75.5 33.9287 75.5 33.9171 75.5 33.9054C75.5 33.8937 75.5 33.882 75.5 33.8703C75.5 33.8586 75.5 33.8469 75.5 33.8352C75.5 33.8234 75.5 33.8117 75.5 33.7999C75.5 33.7881 75.5 33.7763 75.5 33.7645C75.5 33.7527 75.5 33.7408 75.5 33.729C75.5 33.7171 75.5 33.7052 75.5 33.6933C75.5 33.6814 75.5 33.6695 75.5 33.6576C75.5 33.6456 75.5 33.6337 75.5 33.6217C75.5 33.6097 75.5 33.5977 75.5 33.5857C75.5 33.5737 75.5 33.5616 75.5 33.5496C75.5 33.5375 75.5 33.5255 75.5 33.5134C75.5 33.5013 75.5 33.4892 75.5 33.477C75.5 33.4649 75.5 33.4527 75.5 33.4406C75.5 33.4284 75.5 33.4162 75.5 33.404C75.5 33.3918 75.5 33.3796 75.5 33.3673C75.5 33.3551 75.5 33.3428 75.5 33.3305C75.5 33.3182 75.5 33.3059 75.5 33.2936C75.5 33.1612 75.5 33.2779 75.5 33.1449C75.5 33.1324 75.5 33.1199 75.5 33.1074C75.5 33.0949 75.5 33.0824 75.5 33.0698C75.5 33.0573 75.5 33.0447 75.5 33.0321C75.5 33.0196 75.5 33.007 75.5 32.9944C75.5 32.9817 75.5 32.9691 75.5 32.9564C75.5 32.9438 75.5 32.9311 75.5 32.9184C75.5 32.9057 75.5 32.893 75.5 32.8803C75.5 32.8676 75.5 32.8548 75.5 32.8421C75.5 32.8293 75.5 32.8165 75.5 32.8037C75.5 32.7909 75.5 32.7781 75.5 32.7653C75.5 32.7525 75.5 32.7396 75.5 32.7267C75.5 32.7139 75.5 32.701 75.5 32.6881C75.5 32.6752 75.5 32.6622 75.5 32.6493C75.5 32.6364 75.5 32.6234 75.5 32.6104C75.5 32.5975 75.5 32.5845 75.5 32.5715C75.5 32.5584 75.5 32.5454 75.5 32.5324C75.5 32.5193 75.5 32.5063 75.5 32.4932C75.5 32.4801 75.5 32.467 75.5 32.4539C75.5 32.4408 75.5 32.4276 75.5 32.4145C75.5 32.4013 75.5 32.3882 75.5 32.375C75.5 32.3618 75.5 32.3486 75.5 32.3354C75.5 32.3222 75.5 32.3089 75.5 32.2957C75.5 32.2824 75.5 32.2692 75.5 32.2559C75.5 32.2426 75.5 32.2293 75.5 32.216C75.5 32.2027 75.5 32.1893 75.5 32.176C75.5 32.1626 75.5 32.1492 75.5 32.1359C75.5 32.1225 75.5 32.1091 75.5 32.0956C75.5 32.0822 75.5 32.0688 75.5 32.0553C75.5 32.0419 75.5 32.0284 75.5 32.0149C75.5 32.0014 75.5 31.9879 75.5 31.9744C75.5 31.9609 75.5 31.9473 75.5 31.9338C75.5 31.9202 75.5 31.9067 75.5 31.8931C75.5 31.8795 75.5 31.8659 75.5 31.8523C75.5 31.8387 75.5 31.825 75.5 31.8114C75.5 31.7977 75.5 31.7841 75.5 31.7704C75.5 31.7567 75.5 31.743 75.5 31.7293C75.5 31.7156 75.5 31.7018 75.5 31.6881C75.5 31.6743 75.5 31.6606 75.5 31.6468C75.5 31.633 75.5 31.6192 75.5 31.6054C75.5 31.5916 75.5 31.5778 75.5 31.5639C75.5 31.4163 75.5 31.5452 75.5 31.397C75.5 31.3831 75.5 31.3691 75.5 31.3551C75.5 31.3411 75.5 31.3271 75.5 31.313C75.5 31.299 75.5 31.285 75.5 31.2709C75.5 31.2568 75.5 31.2428 75.5 31.2287C75.5 31.2146 75.5 31.2005 75.5 31.1863C75.5 31.1722 75.5 31.1581 75.5 31.1439C75.5 31.1298 75.5 31.1156 75.5 31.1014C75.5 31.0872 75.5 31.073 75.5 31.0588C75.5 31.0446 75.5 31.0304 75.5 31.0161C75.5 31.0019 75.5 30.9876 75.5 30.9734C75.5 30.9591 75.5 30.9448 75.5 30.9305C75.5 30.9162 75.5 30.9019 75.5 30.8876C75.5 30.8732 75.5 30.8589 75.5 30.8445C75.5 30.8302 75.5 30.8158 75.5 30.8014C75.5 30.787 75.5 30.7726 75.5 30.7582C75.5 30.7437 75.5 30.7293 75.5 30.7149C75.5 30.7004 75.5 30.6859 75.5 30.6715C75.5 30.657 75.5 30.6425 75.5 30.628C75.5 30.6135 75.5 30.599 75.5 30.5844C75.5 30.5699 75.5 30.5553 75.5 30.5408C75.5 30.5262 75.5 30.5116 75.5 30.497C75.5 30.4824 75.5 30.4678 75.5 30.4532C75.5 30.4386 75.5 30.424 75.5 30.4093C75.5 30.3947 75.5 30.38 75.5 30.3653C75.5 30.3506 75.5 30.336 75.5 30.3213C75.5 30.3065 75.5 30.2918 75.5 30.2771C75.5 30.2624 75.5 30.2476 75.5 30.2329C75.5 30.2181 75.5 30.2033 75.5 30.1885C75.5 30.1737 75.5 30.1589 75.5 30.1441C75.5 30.1293 75.5 30.1145 75.5 30.0996C75.5 30.0848 75.5 30.0699 75.5 30.0551C75.5 30.0402 75.5 30.0253 75.5 30.0104C75.5 29.9955 75.5 29.9806 75.5 29.9657C75.5 29.9508 75.5 29.9358 75.5 29.9209C75.5 29.9059 75.5 29.891 75.5 29.876C75.5 29.861 75.5 29.846 75.5 29.831C75.5 29.816 75.5 29.801 75.5 29.786C75.5 29.771 75.5 29.7559 75.5 29.7409C75.5 29.7258 75.5 29.7107 75.5 29.6957C75.5 29.6806 75.5 29.6655 75.5 29.6504C75.5 29.6353 75.5 29.6202 75.5 29.605C75.5 29.5899 75.5 29.5748 75.5 29.5596C75.5 29.5444 75.5 29.5293 75.5 29.5141C75.5 29.4989 75.5 29.4837 75.5 29.4685C75.5 29.4533 75.5 29.4381 75.5 29.4228C75.5 29.4076 75.5 29.3924 75.5 29.3771C75.5 29.3618 75.5 29.3466 75.5 29.3313C75.5 29.316 75.5 29.3007 75.5 29.2854C75.5 29.2701 75.5 29.2548 75.5 29.2394C75.5 29.2241 75.5 29.2088 75.5 29.1934C75.5 29.178 75.5 29.1627 75.5 29.1473C75.5 29.1319 75.5 29.1165 75.5 29.1011C75.5 29.0857 75.5 29.0703 75.5 29.0549C75.5 29.0394 75.5 29.024 75.5 29.0085C75.5 28.9931 75.5 28.9776 75.5 28.9621C75.5 28.9467 75.5 28.9312 75.5 28.9157C75.5 28.9002 75.5 28.8847 75.5 28.8691C75.5 28.8536 75.5 28.8381 75.5 28.8225C75.5 28.807 75.5 28.7914 75.5 28.7759C75.5 28.7603 75.5 28.7447 75.5 28.7291C75.5 28.7135 75.5 28.6979 75.5 28.6823C75.5 28.6667 75.5 28.651 75.5 28.6354C75.5 28.6198 75.5 28.6041 75.5 28.5884C75.5 28.5728 75.5 28.5571 75.5 28.5414C75.5 28.5257 75.5 28.51 75.5 28.4943C75.5 28.4786 75.5 28.4629 75.5 28.4472C75.5 28.4314 75.5 28.4157 75.5 28.3999C75.5 28.3842 75.5 28.3684 75.5 28.3527C75.5 28.3369 75.5 28.3211 75.5 28.3053C75.5 28.2895 75.5 28.2737 75.5 28.2579C75.5 28.2421 75.5 28.2262 75.5 28.2104C75.5 28.1946 75.5 28.1787 75.5 28.1628C75.5 28.147 75.5 28.1311 75.5 28.1152C75.5 28.0993 75.5 28.0834 75.5 28.0675C75.5 28.0516 75.5 28.0357 75.5 28.0198C75.5 28.0039 75.5 27.9879 75.5 27.972C75.5 27.956 75.5 27.9401 75.5 27.9241C75.5 27.9082 75.5 27.8922 75.5 27.8762C75.5 27.8602 75.5 27.8442 75.5 27.8282C75.5 27.8122 75.5 27.7962 75.5 27.7801C75.5 27.7641 75.5 27.7481 75.5 27.732C75.5 27.716 75.5 27.6999 75.5 27.6838C75.5 27.6678 75.5 27.6517 75.5 27.6356C75.5 27.6195 75.5 27.6034 75.5 27.5873C75.5 27.5712 75.5 27.5551 75.5 27.5389C75.5 27.5228 75.5 27.5067 75.5 27.4905C75.5 27.4744 75.5 27.4582 75.5 27.4421C75.5 27.4259 75.5 27.4097 75.5 27.3935C75.5 27.3773 75.5 27.3611 75.5 27.3449C75.5 27.3287 75.5 27.3125 75.5 27.2963C75.5 27.2801 75.5 27.2638 75.5 27.2476C75.5 27.2313 75.5 27.2151 75.5 27.1988C75.5 27.1825 75.5 27.1663 75.5 27.15C75.5 27.1337 75.5 27.1174 75.5 27.1011C75.5 27.0848 75.5 27.0685 75.5 27.0522C75.5 27.0359 75.5 27.0195 75.5 27.0032C75.5 26.9869 75.5 26.9705 75.5 26.9542C75.5 26.9378 75.5 26.9214 75.5 26.9051C75.5 26.8887 75.5 26.8723 75.5 26.8559C75.5 26.8395 75.5 26.8231 75.5 26.8067C75.5 26.7903 75.5 26.7739 75.5 26.7575C75.5 26.741 75.5 26.7246 75.5 26.7081C75.5 26.6917 75.5 26.6752 75.5 26.6588C75.5 26.6423 75.5 26.6259 75.5 26.6094C75.5 26.5929 75.5 26.5764 75.5 26.5599C75.5 26.5434 75.5 26.5269 75.5 26.5104C75.5 26.4939 75.5 26.4774 75.5 26.4608C75.5 26.4443 75.5 26.4278 75.5 26.4112C75.5 26.3947 75.5 26.3781 75.5 26.3615C75.5 26.345 75.5 26.3284 75.5 26.3118C75.5 26.2952 75.5 26.2787 75.5 26.2621C75.5 26.2455 75.5 26.2289 75.5 26.2123C75.5 26.1956 75.5 26.179 75.5 26.1624C75.5 26.1458 75.5 26.1291 75.5 26.1125C75.5 26.0958 75.5 26.0792 75.5 26.0625C75.5 26.0459 75.5 26.0292 75.5 26.0125C75.5 25.9958 75.5 25.9792 75.5 25.9625C75.5 25.9458 75.5 25.9291 75.5 25.9124C75.5 25.8957 75.5 25.879 75.5 25.8622C75.5 25.8455 75.5 25.8288 75.5 25.812C75.5 25.7953 75.5 25.7786 75.5 25.7618C75.5 25.7451 75.5 25.7283 75.5 25.7115C75.5 25.6948 75.5 25.678 75.5 25.6612C75.5 25.6444 75.5 25.6276 75.5 25.6108C75.5 25.5212 75.5 25.5997 75.5 25.51C75.5 25.4932 75.5 25.4763 75.5 25.4595C75.5 25.4426 75.5 25.4258 75.5 25.4089C75.5 25.3921 75.5 25.3752 75.5 25.3584C75.5 25.3415 75.5 25.3246 75.5 25.3077C75.5 25.2909 75.5 25.274 75.5 25.2571C75.5 25.2402 75.5 25.2233 75.5 25.2064C75.5 25.1895 75.5 25.1726 75.5 25.1556C75.5 25.1387 75.5 25.1218 75.5 25.1049C75.5 25.0879 75.5 25.071 75.5 25.054C75.5 25.0371 75.5 25.0201 75.5 25.0032C75.5 24.9862 75.5 24.9692 75.5 24.9523C75.5 24.9353 75.5 24.9183 75.5 24.9013C75.5 24.8843 75.5 24.8674 75.5 24.8504C75.5 24.8334 75.5 24.8164 75.5 24.7993C75.5 24.7823 75.5 24.7653 75.5 24.7483C75.5 24.7313 75.5 24.7142 75.5 24.6972C75.5 24.6802 75.5 24.6631 75.5 24.6461C75.5 24.629 75.5 24.612 75.5 24.5949C75.5 24.5779 75.5 24.5608 75.5 24.5437C75.5 24.5267 75.5 24.5096 75.5 24.4925C75.5 24.4754 75.5 24.4583 75.5 24.4412C75.5 24.4241 75.5 24.407 75.5 24.3899C75.5 24.3728 75.5 24.3557 75.5 24.3386C75.5 24.3215 75.5 24.3044 75.5 24.2872C75.5 24.2701 75.5 24.253 75.5 24.2358C75.5 24.2187 75.5 24.2016 75.5 24.1844C75.5 24.1673 75.5 24.1501 75.5 24.133C75.5 24.1158 75.5 24.0986 75.5 24.0815C75.5 24.0643 75.5 24.0471 75.5 24.0299C75.5 24.0128 75.5 23.9956 75.5 23.9784C75.5 23.795 75.5 23.9554 75.5 23.7718C75.5 23.7546 75.5 23.7374 75.5 23.7201C75.5 23.7029 75.5 23.6857 75.5 23.6684C75.5 23.6512 75.5 23.6339 75.5 23.6166C75.5 23.5994 75.5 23.5821 75.5 23.5649C75.5 23.5476 75.5 23.5303 75.5 23.513C75.5 23.4958 75.5 23.4785 75.5 23.4612C75.5 23.4439 75.5 23.4266 75.5 23.4093C75.5 23.392 75.5 23.3747 75.5 23.3574C75.5 23.3401 75.5 23.3228 75.5 23.3055C75.5 23.2882 75.5 23.2709 75.5 23.2535C75.5 23.2362 75.5 23.2189 75.5 23.2016C75.5 23.1842 75.5 23.1669 75.5 23.1496C75.5 23.0571 75.5 23.1381 75.5 23.0455C75.5 23.0282 75.5 23.0108 75.5 22.9934C75.5 22.9761 75.5 22.9587 75.5 22.9413C75.5 22.924 75.5 22.9066 75.5 22.8892C75.5 22.8719 75.5 22.8545 75.5 22.8371C75.5 22.8197 75.5 22.8023 75.5 22.7849C75.5 22.7675 75.5 22.7502 75.5 22.7328C75.5 22.7154 75.5 22.698 75.5 22.6806C75.5 22.6632 75.5 22.6457 75.5 22.6283C75.5 22.6109 75.5 22.5935 75.5 22.5761C75.5 22.5587 75.5 22.5413 75.5 22.5238C75.5 22.5064 75.5 22.489 75.5 22.4716C75.5 22.4541 75.5 22.4367 75.5 22.4193C75.5 22.4018 75.5 22.3844 75.5 22.3669C75.5 22.3495 75.5 22.332 75.5 22.3146C75.5 22.2972 75.5 22.2797 75.5 22.2622C75.5 22.2448 75.5 22.2273 75.5 22.2099C75.5 22.1924 75.5 22.175 75.5 22.1575C75.5 22.14 75.5 22.1226 75.5 22.1051C75.5 22.0876 75.5 22.0701 75.5 22.0527C75.5 22.0352 75.5 22.0177 75.5 22.0002C75.5 21.9827 75.5 21.9653 75.5 21.9478C75.5 21.9303 75.5 21.9128 75.5 21.8953C75.5 21.8778 75.5 21.8603 75.5 21.8428C75.5 21.8253 75.5 21.8078 75.5 21.7903C75.5 21.7728 75.5 21.7553 75.5 21.7378C75.5 21.7203 75.5 21.7028 75.5 21.6853C75.5 21.125 75.5 20.5625 75.5 20L72.5 20ZM3.06066 30.0607L30.0607 3.06066L27.9393 0.93934L0.93934 27.9393L3.06066 30.0607ZM0.5 2V29H3.5V2H0.5ZM29 0.5H2V3.5H29V0.5ZM75.5 74V47H72.5V74H75.5ZM47 75.5H74V72.5H47V75.5ZM56 0.5H38V3.5H56V0.5ZM75.5 38V20H72.5V38H75.5ZM36.9393 3.06066L45.9393 12.0607L48.0607 9.93934L39.0607 0.93934L36.9393 3.06066ZM3.06066 57.0607L48.0607 12.0607L45.9393 9.93934L0.93934 54.9393L3.06066 57.0607ZM45.9393 12.0607L63.9393 30.0607L66.0607 27.9393L48.0607 9.93934L45.9393 12.0607ZM39.0607 75.0607L43.5607 70.5607L41.4393 68.4393L36.9393 72.9393L39.0607 75.0607ZM41 51.5V69.5H44V51.5H41ZM52.25 40.25V58.25H55.25V40.25H52.25ZM29.75 62.75V74H32.75V62.75H29.75ZM63.5 29V47H66.5V29H63.5ZM54.8107 41.3107L60.4357 35.6857L58.3143 33.5643L52.6893 39.1893L54.8107 41.3107ZM60.4357 35.6857L66.0607 30.0607L63.9393 27.9393L58.3143 33.5643L60.4357 35.6857ZM54.8107 59.3107L60.4357 53.6857L58.3143 51.5643L52.6893 57.1893L54.8107 59.3107ZM60.4357 53.6857L66.0607 48.0607L63.9393 45.9393L58.3143 51.5643L60.4357 53.6857ZM57.875 34.625V52.625H60.875V34.625H57.875ZM63.9393 30.0607L68.4393 34.5607L70.5607 32.4393L66.0607 27.9393L63.9393 30.0607ZM68.4393 34.5607L72.9393 39.0607L75.0607 36.9393L70.5607 32.4393L68.4393 34.5607ZM66.0607 48.0607L70.5607 43.5607L68.4393 41.4393L63.9393 45.9393L66.0607 48.0607ZM70.5607 43.5607L75.0607 39.0607L72.9393 36.9393L68.4393 41.4393L70.5607 43.5607ZM68 33.5V42.5H71V33.5H68ZM43.5607 52.5607L49.1857 46.9357L47.0643 44.8143L41.4393 50.4393L43.5607 52.5607ZM49.1857 46.9357L54.8107 41.3107L52.6893 39.1893L47.0643 44.8143L49.1857 46.9357ZM43.5607 70.5607L49.1857 64.9357L47.0643 62.8143L41.4393 68.4393L43.5607 70.5607ZM49.1857 64.9357L54.8107 59.3107L52.6893 57.1893L47.0643 62.8143L49.1857 64.9357ZM46.625 45.875V63.875H49.625V45.875H46.625ZM32.3107 63.8107L37.9357 58.1857L35.8143 56.0643L30.1893 61.6893L32.3107 63.8107ZM37.9357 58.1857L43.5607 52.5607L41.4393 50.4393L35.8143 56.0643L37.9357 58.1857ZM38 72.5H36.875V75.5H38V72.5ZM36.875 72.5H31.25V75.5H36.875V72.5ZM35.375 57.125V74H38.375V57.125H35.375ZM21.0607 75.0607L26.6857 69.4357L24.5643 67.3143L18.9393 72.9393L21.0607 75.0607ZM26.6857 69.4357L32.3107 63.8107L30.1893 61.6893L24.5643 67.3143L26.6857 69.4357ZM31.25 72.5H25.625V75.5H31.25V72.5ZM25.625 72.5H20V75.5H25.625V72.5ZM24.125 68.375V74H27.125V68.375H24.125Z" fill="white"/>
</svg>
