<svg width="117" height="70" viewBox="0 0 117 70" fill="none" xmlns="http://www.w3.org/2000/svg">
<path d="M66 62.981V68.1456H70.9151L66 62.981Z" fill="url(#paint0_linear_39_15)"/>
<path d="M80.7452 68.1456L106.14 41.462L101.206 36.3178L75.8301 62.981C78.6417 63.6296 79.5935 64.6787 80.2291 66.424C80.4154 66.9356 80.5745 67.5069 80.7452 68.1456Z" fill="url(#paint1_linear_39_15)"/>
<path d="M106.14 41.462C106.14 41.462 116.789 32.8544 115.97 31.1329C115.151 29.4114 111.861 21.5135 107.778 18.8526C113.731 25.1076 112.545 24.4028 101.206 36.3178L106.14 41.462Z" fill="url(#paint2_linear_39_15)"/>
<path d="M66 52.6519L92.2139 26.9439M66 52.6519C68.8716 53.6682 70.0395 54.7029 70.9151 57.8165M66 52.6519C66 55.7794 66 59.8133 66 62.981M66 68.1456C66 68.1456 66 65.9416 66 62.981M66 68.1456H70.9151M66 68.1456V62.981M80.7453 68.1456L106.14 41.462M80.7453 68.1456H70.9151M80.7453 68.1456C80.5746 67.5069 80.4155 66.9356 80.2292 66.424C79.5936 64.6787 78.6418 63.6296 75.8302 62.981M92.2139 26.9439C92.2139 26.9439 101.225 16.5 102.863 16.5C104.502 16.5 106.372 17.9361 107.778 18.8526M92.2139 26.9439L96.2711 31.1736M106.14 41.462C106.14 41.462 116.789 32.8544 115.97 31.1329C115.151 29.4114 111.861 21.5135 107.778 18.8526M106.14 41.462L101.206 36.3178M70.9151 57.8165C73.9422 58.6691 74.9169 59.9073 75.8302 62.981M70.9151 57.8165L96.2711 31.1736M75.8302 62.981L101.206 36.3178M101.206 36.3178L96.2711 31.1736M101.206 36.3178C112.545 24.4028 113.731 25.1076 107.778 18.8526M66 62.981L70.9151 68.1456" stroke="url(#paint3_linear_39_15)" stroke-width="1.5"/>
<path d="M1.02395 38.5C0.807951 38.5 0.699951 38.392 0.699951 38.176C0.699951 36.112 0.735951 33.976 0.807951 31.768C0.879951 29.56 0.987951 27.388 1.13195 25.252C1.27595 23.116 1.41995 21.124 1.56395 19.276C1.73195 17.428 1.89995 15.856 2.06795 14.56C2.09195 14.464 2.11595 14.392 2.13995 14.344C2.18795 14.296 2.25995 14.272 2.35595 14.272H3.72395C3.86795 14.272 3.96395 14.296 4.01195 14.344C4.08395 14.392 4.14395 14.464 4.19195 14.56L10.6 25.612C10.672 25.756 10.756 25.828 10.852 25.828C10.948 25.828 11.032 25.768 11.104 25.648L17.44 14.632C17.512 14.488 17.584 14.392 17.656 14.344C17.728 14.296 17.8359 14.272 17.9799 14.272H19.24C19.456 14.272 19.576 14.404 19.6 14.668C19.744 15.94 19.9 17.476 20.068 19.276C20.236 21.076 20.38 23.032 20.5 25.144C20.644 27.256 20.7519 29.416 20.8239 31.624C20.9199 33.832 20.968 35.98 20.968 38.068C20.968 38.236 20.944 38.356 20.896 38.428C20.848 38.476 20.752 38.5 20.608 38.5H18.7C18.484 38.5 18.3759 38.38 18.3759 38.14C18.3759 37.132 18.352 36.004 18.304 34.756C18.28 33.508 18.2439 32.212 18.1959 30.868C18.1479 29.524 18.088 28.192 18.016 26.872C17.944 25.528 17.86 24.28 17.764 23.128C17.692 21.952 17.62 20.932 17.548 20.068C17.524 19.9 17.452 19.816 17.332 19.816C17.212 19.816 17.116 19.876 17.044 19.996L11.644 29.176C11.548 29.32 11.404 29.392 11.212 29.392H10.384C10.216 29.392 10.072 29.308 9.95195 29.14L4.62395 20.068C4.55195 19.924 4.45595 19.864 4.33595 19.888C4.21595 19.888 4.15595 19.972 4.15595 20.14C4.05995 21.244 3.95195 22.504 3.83195 23.92C3.73595 25.336 3.63995 26.848 3.54395 28.456C3.47195 30.04 3.41195 31.672 3.36395 33.352C3.33995 35.032 3.32795 36.676 3.32795 38.284C3.32795 38.428 3.25595 38.5 3.11195 38.5H1.02395ZM29.3521 35.98C28.8001 35.164 28.26 34.18 27.732 33.028C27.228 31.852 26.7601 30.604 26.3281 29.284C25.9201 27.964 25.572 26.668 25.284 25.396C24.9961 24.1 24.768 22.948 24.6 21.94C24.552 21.652 24.6481 21.508 24.8881 21.508H26.868C27.012 21.508 27.1201 21.544 27.1921 21.616C27.2881 21.688 27.3481 21.832 27.3721 22.048C27.4201 22.648 27.5281 23.38 27.6961 24.244C27.8881 25.084 28.1161 25.972 28.3801 26.908C28.6441 27.844 28.92 28.768 29.208 29.68C29.496 30.592 29.7961 31.42 30.1081 32.164C30.4201 32.908 30.708 33.484 30.972 33.892C31.068 34.06 31.164 34.144 31.26 34.144C31.356 34.144 31.4161 34.096 31.4401 34C31.7761 33.4 32.1241 32.608 32.4841 31.624C32.8441 30.64 33.204 29.572 33.564 28.42C33.924 27.268 34.236 26.128 34.5 25C34.764 23.848 34.9441 22.816 35.0401 21.904C35.0401 21.736 35.0761 21.628 35.1481 21.58C35.2441 21.532 35.364 21.508 35.508 21.508H37.272C37.392 21.508 37.4881 21.532 37.5601 21.58C37.6321 21.628 37.656 21.76 37.632 21.976C37.512 22.816 37.3561 23.656 37.1641 24.496C36.9721 25.312 36.7561 26.14 36.5161 26.98C36.3001 27.796 36.0481 28.66 35.7601 29.572C35.4721 30.388 35.124 31.372 34.716 32.524C34.332 33.652 33.8521 34.828 33.2761 36.052C32.7001 37.252 32.028 38.368 31.26 39.4C30.492 40.456 29.5921 41.308 28.5601 41.956C27.5521 42.604 26.4 42.928 25.104 42.928C24.744 42.928 24.4081 42.904 24.0961 42.856C23.7841 42.832 23.496 42.784 23.232 42.712C22.944 42.592 22.848 42.412 22.944 42.172L23.448 41.056C23.52 40.936 23.5921 40.864 23.6641 40.84C23.7361 40.84 23.8321 40.864 23.9521 40.912C24.5521 41.008 25.1881 40.948 25.8601 40.732C26.5561 40.516 27.1561 40.204 27.6601 39.796C28.1401 39.46 28.5001 39.136 28.7401 38.824C29.0041 38.536 29.256 38.188 29.496 37.78C29.616 37.516 29.6641 37.228 29.6401 36.916C29.6401 36.604 29.5441 36.292 29.3521 35.98ZM40.0848 38.5C39.9648 38.5 39.8928 38.464 39.8688 38.392C39.8448 38.296 39.8448 38.128 39.8688 37.888C40.0368 36.76 40.2888 35.404 40.6248 33.82C40.9608 32.236 41.3568 30.544 41.8128 28.744C42.2688 26.944 42.7488 25.156 43.2528 23.38C43.7808 21.604 44.3207 19.96 44.8727 18.448C45.4247 16.912 45.9527 15.64 46.4567 14.632C46.5287 14.512 46.6007 14.428 46.6727 14.38C46.7447 14.308 46.8288 14.272 46.9248 14.272H49.8768C49.9968 14.296 50.0927 14.332 50.1647 14.38C50.2607 14.428 50.3448 14.524 50.4168 14.668C50.8968 15.628 51.4007 16.876 51.9287 18.412C52.4807 19.948 53.0208 21.616 53.5488 23.416C54.0768 25.216 54.5687 27.028 55.0247 28.852C55.5047 30.676 55.9127 32.38 56.2487 33.964C56.5847 35.524 56.8248 36.832 56.9688 37.888C57.0168 38.128 57.0287 38.296 57.0047 38.392C56.9807 38.464 56.8968 38.5 56.7528 38.5H54.7008C54.6048 38.5 54.5327 38.476 54.4847 38.428C54.4607 38.356 54.4128 38.212 54.3408 37.996C54.2448 37.348 54.1128 36.592 53.9448 35.728C53.7768 34.84 53.5968 33.94 53.4048 33.028C53.3808 32.884 53.3327 32.788 53.2607 32.74C53.2127 32.692 53.1047 32.668 52.9367 32.668H43.8647C43.7207 32.692 43.6248 32.728 43.5768 32.776C43.5288 32.8 43.4808 32.896 43.4328 33.064C43.2408 33.952 43.0607 34.84 42.8927 35.728C42.7247 36.592 42.5808 37.36 42.4608 38.032C42.4368 38.224 42.4007 38.356 42.3527 38.428C42.3287 38.476 42.2567 38.5 42.1367 38.5H40.0848ZM44.4048 30.58H52.3608C52.4808 30.58 52.5648 30.544 52.6128 30.472C52.6848 30.4 52.6968 30.256 52.6488 30.04C52.1208 28 51.5808 25.948 51.0288 23.884C50.5008 21.82 49.8528 19.852 49.0848 17.98C49.0368 17.836 48.9287 17.764 48.7607 17.764H48.0768C47.9328 17.764 47.8367 17.848 47.7887 18.016C47.4047 18.952 46.9848 20.104 46.5288 21.472C46.0968 22.816 45.6767 24.244 45.2687 25.756C44.8607 27.268 44.4888 28.744 44.1528 30.184C44.1288 30.28 44.1288 30.376 44.1528 30.472C44.1768 30.544 44.2608 30.58 44.4048 30.58ZM65.9593 21.328C67.4233 21.328 68.6593 21.52 69.6673 21.904C69.7873 21.976 69.8713 22.036 69.9193 22.084C69.9913 22.132 70.0153 22.216 69.9913 22.336L69.6313 23.704C69.6073 23.824 69.5593 23.896 69.4873 23.92C69.4393 23.944 69.3553 23.932 69.2353 23.884C68.8033 23.74 68.3353 23.644 67.8313 23.596C67.3273 23.524 66.8593 23.488 66.4273 23.488C66.0433 23.488 65.6473 23.524 65.2393 23.596C64.8313 23.668 64.4592 23.752 64.1232 23.848C63.8112 23.92 63.5713 23.992 63.4033 24.064C63.3073 24.136 63.1873 24.22 63.0433 24.316C62.8993 24.412 62.8273 24.628 62.8273 24.964V38.104C62.8273 38.272 62.8032 38.38 62.7552 38.428C62.7072 38.476 62.6233 38.5 62.5033 38.5H60.5592C60.4872 38.5 60.4153 38.476 60.3433 38.428C60.2953 38.38 60.2713 38.296 60.2713 38.176V23.452C60.2713 23.092 60.3192 22.852 60.4152 22.732C60.5112 22.612 60.6553 22.504 60.8473 22.408C61.5673 22.072 62.4072 21.808 63.3672 21.616C64.3272 21.424 65.1913 21.328 65.9593 21.328ZM78.1326 38.5C76.6446 38.5 75.5406 38.188 74.8206 37.564C74.1006 36.916 73.6326 36.016 73.4166 34.864C73.2006 33.856 73.0926 32.8 73.0926 31.696C73.0926 30.568 73.0926 29.416 73.0926 28.24C73.0926 27.424 73.0926 26.644 73.0926 25.9C73.1166 25.156 73.1526 24.4 73.2006 23.632C73.2006 23.416 73.1046 23.308 72.9126 23.308H71.0766C70.9806 23.308 70.9086 23.284 70.8606 23.236C70.8126 23.188 70.7886 23.116 70.7886 23.02V21.796C70.7886 21.7 70.8126 21.628 70.8606 21.58C70.9086 21.532 70.9926 21.508 71.1126 21.508H72.9486C73.0686 21.508 73.1526 21.484 73.2006 21.436C73.2486 21.364 73.2726 21.244 73.2726 21.076L73.4526 18.016C73.4526 17.848 73.5246 17.764 73.6686 17.764H75.6846C75.7566 17.764 75.8166 17.788 75.8646 17.836C75.9366 17.884 75.9726 17.944 75.9726 18.016L75.8286 21.076C75.8046 21.244 75.8046 21.364 75.8286 21.436C75.8766 21.484 75.9606 21.508 76.0806 21.508H80.2926C80.4126 21.508 80.4846 21.532 80.5086 21.58C80.5566 21.604 80.5806 21.688 80.5806 21.832V22.984C80.5806 23.08 80.5566 23.164 80.5086 23.236C80.4606 23.284 80.3766 23.308 80.2566 23.308H76.0806C75.9846 23.308 75.9006 23.344 75.8286 23.416C75.7566 23.464 75.7206 23.56 75.7206 23.704C75.6966 24.472 75.6726 25.252 75.6486 26.044C75.6246 26.836 75.6126 27.64 75.6126 28.456C75.6126 29.44 75.6126 30.448 75.6126 31.48C75.6366 32.488 75.7566 33.472 75.9726 34.432C76.1166 35.104 76.3806 35.608 76.7646 35.944C77.1726 36.28 77.7966 36.448 78.6366 36.448C78.9726 36.448 79.3086 36.412 79.6446 36.34C79.9806 36.244 80.3166 36.148 80.6526 36.052C80.8206 35.956 80.9286 35.92 80.9766 35.944C81.0246 35.968 81.0726 36.052 81.1206 36.196L81.5166 37.384C81.5646 37.528 81.5406 37.636 81.4446 37.708C81.3726 37.78 81.2166 37.876 80.9766 37.996C80.7126 38.092 80.3886 38.188 80.0046 38.284C79.6446 38.356 79.2966 38.416 78.9606 38.464C78.6246 38.488 78.3486 38.5 78.1326 38.5Z" fill="url(#paint4_linear_39_15)"/>
<defs>
<linearGradient id="paint0_linear_39_15" x1="91.0076" y1="16.5" x2="91.0076" y2="68.1456" gradientUnits="userSpaceOnUse">
<stop stop-color="#EEF7FF"/>
<stop offset="1" stop-color="white"/>
</linearGradient>
<linearGradient id="paint1_linear_39_15" x1="91.0075" y1="16.5" x2="91.0075" y2="68.1456" gradientUnits="userSpaceOnUse">
<stop stop-color="#EEF7FF"/>
<stop offset="1" stop-color="white"/>
</linearGradient>
<linearGradient id="paint2_linear_39_15" x1="91.0077" y1="16.5" x2="91.0077" y2="68.1456" gradientUnits="userSpaceOnUse">
<stop stop-color="#EEF7FF"/>
<stop offset="1" stop-color="white"/>
</linearGradient>
<linearGradient id="paint3_linear_39_15" x1="91.0076" y1="16.5" x2="91.0076" y2="68.1456" gradientUnits="userSpaceOnUse">
<stop stop-color="#EEF7FF"/>
<stop offset="1" stop-color="white"/>
</linearGradient>
<linearGradient id="paint4_linear_39_15" x1="78.2801" y1="6.5" x2="78.2801" y2="96.2861" gradientUnits="userSpaceOnUse">
<stop stop-color="#EEF7FF"/>
<stop offset="1" stop-color="white"/>
</linearGradient>
</defs>
</svg>
